<svg width="200" height="200" viewBox="0 0 200 200" fill="none" xmlns="http://www.w3.org/2000/svg">
<path fill-rule="evenodd" clip-rule="evenodd" d="M100 200C155.228 200 200 155.228 200 100C200 44.7715 155.228 0 100 0C44.7715 0 0 44.7715 0 100C0 155.228 44.7715 200 100 200Z" fill="#F3F3F3"/>
<path d="M100 60C88.9543 60 80 68.9543 80 80C80 91.0457 88.9543 100 100 100C111.046 100 120 91.0457 120 80C120 68.9543 111.046 60 100 60Z" fill="#B5B5B5"/>
<path d="M76.4998 108C71.8065 108 68 111.803 68 116.498L68 118C68 125.511 71.8833 131.134 77.8403 134.76C83.6982 138.327 91.5722 140 100 140C108.428 140 116.302 138.327 122.16 134.76C128.117 131.134 132 125.511 132 118L132 116.497C132 111.802 128.194 108 123.5 108H76.4998Z" fill="#B5B5B5"/>
</svg>
