<svg width="600" height="600" viewBox="0 0 600 600" fill="none" xmlns="http://www.w3.org/2000/svg">
<path d="M115.836 468.936C217.836 522.216 383.136 522.216 485.112 468.936C587.088 415.656 587.112 329.304 485.112 276.024C383.112 222.744 217.812 222.756 115.836 276.024C13.86 329.292 13.872 415.668 115.836 468.936Z" fill="#4267B2" fill-opacity="0.2"/>
<path d="M85.584 384H89.88C91.849 377.425 93.1398 370.666 93.732 363.828C94.668 351.168 88.536 331.788 77.304 325.296C66.072 318.804 59.988 326.832 63.756 333.696C67.524 340.56 80.232 360.084 80.4 376.884L85.584 384Z" fill="#4267B2"/>
<path d="M84.5519 384H85.7519C86.9244 375.709 86.9244 367.295 85.7519 359.004C83.8079 342.576 78.4079 334.944 73.3919 329.64C73.2821 329.524 73.1307 329.456 72.9709 329.452C72.8111 329.447 72.6561 329.506 72.5399 329.616C72.4238 329.726 72.356 329.877 72.3515 330.037C72.347 330.197 72.4061 330.352 72.5159 330.468C77.3999 335.616 82.6559 343.056 84.5159 359.136C85.7047 367.381 85.7168 375.752 84.5519 384Z" fill="white"/>
<path d="M85.932 384C83.724 373.584 73.692 361.2 64.224 359.064C53.244 356.664 47.904 362.46 49.476 367.464C51.048 372.468 59.724 374.796 68.148 378.72C70.9845 380.033 73.5774 381.818 75.816 384H85.932Z" fill="#4267B2"/>
<path d="M81.936 384H83.22C78.576 372.324 68.016 363.996 59.376 363.228C59.2978 363.22 59.2187 363.227 59.1434 363.25C59.0682 363.273 58.9983 363.311 58.9379 363.361C58.8774 363.411 58.8277 363.473 58.7917 363.543C58.7556 363.613 58.734 363.69 58.728 363.768C58.718 363.847 58.7243 363.926 58.7464 364.002C58.7686 364.078 58.8062 364.149 58.8569 364.21C58.9075 364.27 58.9702 364.32 59.0409 364.356C59.1117 364.391 59.189 364.412 59.268 364.416C67.428 365.148 77.4 372.972 81.936 384Z" fill="white"/>
<path d="M473.304 274.212L482.292 278.928L483.048 273.3C478.596 260.748 482.256 246.516 487.068 240.588C491.88 234.66 490.956 230.304 489.216 228.36C487.476 226.416 480.876 224.94 474.348 232.572C467.82 240.204 466.32 249.468 467.412 258.816C468.108 264.66 471.18 270.66 473.304 274.212Z" fill="#4267B2"/>
<path opacity="0.2" d="M473.304 274.212L482.292 278.928L483.048 273.3C478.596 260.748 482.256 246.516 487.068 240.588C491.88 234.66 490.956 230.304 489.216 228.36C487.476 226.416 480.876 224.94 474.348 232.572C467.82 240.204 466.32 249.468 467.412 258.816C468.108 264.66 471.18 270.66 473.304 274.212Z" fill="black"/>
<path d="M477.012 276.156L478.788 277.092C478.771 277.058 478.751 277.026 478.728 276.996C476.184 273.972 472.896 259.164 474.276 250.488C475.98 239.772 481.476 232.776 486.18 229.812C486.237 229.777 486.287 229.73 486.327 229.675C486.366 229.62 486.394 229.557 486.408 229.491C486.423 229.425 486.424 229.357 486.411 229.29C486.399 229.224 486.373 229.16 486.336 229.104C486.26 228.989 486.142 228.909 486.008 228.88C485.873 228.851 485.733 228.875 485.616 228.948C480.816 232.032 475.008 239.268 473.244 250.332C471.972 258.408 474.516 271.2 477.012 276.156Z" fill="white"/>
<path d="M482.472 252.792C485.1 259.236 485.088 262.392 480.804 263.052C476.94 263.628 472.248 268.32 476.604 275.94L502.092 289.308C502.156 287.883 502.508 286.487 503.127 285.202C503.746 283.917 504.618 282.771 505.692 281.832C509.88 277.644 513.744 274.488 513.144 269.832C512.544 265.176 508.5 260.688 507.828 256.632C507.156 252.576 509.22 250.26 513.624 245.712C518.028 241.164 522.024 234.108 516.144 230.892C510.264 227.676 503.532 233.184 500.724 236.892C497.916 240.6 495.348 242.232 489.816 241.92C484.284 241.608 479.844 246.348 482.472 252.792Z" fill="#4267B2"/>
<path d="M489.684 282.804C489.564 263.028 503.736 239.868 511.62 235.188C511.736 235.114 511.82 234.998 511.853 234.864C511.887 234.73 511.868 234.588 511.8 234.468C511.728 234.352 511.614 234.269 511.482 234.236C511.35 234.202 511.21 234.221 511.092 234.288C503.1 239.088 488.808 262.26 488.652 282.288L489.684 282.804Z" fill="white"/>
<path d="M493.476 262.248C493.368 262.273 493.254 262.26 493.154 262.212C493.054 262.164 492.973 262.084 492.924 261.984C490.635 257.713 488.708 253.257 487.164 248.664C487.143 248.599 487.136 248.531 487.142 248.464C487.147 248.396 487.167 248.331 487.198 248.27C487.229 248.21 487.272 248.157 487.324 248.113C487.375 248.069 487.435 248.036 487.5 248.016C487.565 247.995 487.633 247.988 487.7 247.994C487.768 248 487.833 248.019 487.894 248.05C487.954 248.081 488.007 248.124 488.051 248.176C488.094 248.227 488.127 248.287 488.148 248.352C489.678 252.882 491.58 257.277 493.836 261.492C493.9 261.615 493.913 261.758 493.873 261.89C493.832 262.023 493.742 262.134 493.62 262.2L493.476 262.248Z" fill="white"/>
<path d="M490.068 274.368C489.97 274.386 489.868 274.377 489.775 274.341C489.682 274.305 489.601 274.244 489.54 274.164C489.461 274.049 489.431 273.908 489.455 273.771C489.48 273.634 489.558 273.512 489.672 273.432C494.84 269.814 501.109 268.116 507.396 268.632C507.533 268.65 507.657 268.721 507.742 268.83C507.826 268.939 507.864 269.077 507.846 269.214C507.829 269.351 507.757 269.475 507.648 269.56C507.539 269.644 507.401 269.681 507.264 269.664C501.244 269.206 495.249 270.819 490.272 274.236C490.214 274.293 490.144 274.338 490.068 274.368Z" fill="white"/>
<path d="M76.572 378.9L207.54 454.5C209.15 455.317 210.93 455.743 212.736 455.743C214.542 455.743 216.322 455.317 217.932 454.5L504.888 288.9C507.756 287.244 507.756 284.556 504.888 282.9L373.92 207.3C372.311 206.477 370.531 206.048 368.724 206.048C366.917 206.048 365.136 206.477 363.528 207.3L76.572 372.9C73.704 374.556 73.704 377.244 76.572 378.9Z" fill="#455A64"/>
<path d="M147.36 414C149.593 415.127 152.059 415.713 154.56 415.713C157.061 415.713 159.527 415.127 161.76 414C165.756 411.696 165.756 408 161.76 405.66C159.529 404.528 157.062 403.938 154.56 403.938C152.058 403.938 149.591 404.528 147.36 405.66C143.364 408 143.364 411.72 147.36 414Z" fill="#263238"/>
<path d="M210 454.5L79.032 378.9C76.464 377.412 76.2 375.108 78.228 373.452C76.9471 374.465 75.8939 375.737 75.1372 377.184C74.3805 378.631 73.9371 380.222 73.836 381.852V386.736C73.9345 388.539 74.4562 390.293 75.359 391.857C76.2617 393.42 77.52 394.749 79.032 395.736L210 471.336C211.601 472.172 213.39 472.586 215.196 472.536V455.748C213.386 455.783 211.597 455.353 210 454.5Z" fill="#37474F"/>
<path d="M504.876 305.724C506.392 304.74 507.653 303.412 508.558 301.848C509.463 300.284 509.986 298.528 510.084 296.724V291.84C509.987 290.208 509.544 288.615 508.785 287.167C508.025 285.719 506.967 284.448 505.68 283.44C507.72 285.096 507.456 287.4 504.888 288.876L217.932 454.5C216.329 455.333 214.542 455.746 212.736 455.7V472.584C214.542 472.63 216.329 472.217 217.932 471.384L504.876 305.724Z" fill="#263238"/>
<path d="M229.116 438.84L103.764 366.432C102.036 365.436 102.036 363.816 103.764 362.832L346.068 222.9C347.035 222.409 348.104 222.153 349.188 222.153C350.272 222.153 351.341 222.409 352.308 222.9L477.708 295.296C479.424 296.292 479.424 297.9 477.708 298.896L235.308 438.84C234.348 439.323 233.287 439.575 232.212 439.575C231.137 439.575 230.076 439.323 229.116 438.84Z" fill="white"/>
<path d="M178.608 398.412L193.236 389.964L188.364 387.156L173.736 395.592L178.608 398.412Z" fill="#4267B2"/>
<path d="M354.096 297.096L368.724 288.648L363.84 285.84L349.224 294.288L354.096 297.096Z" fill="#4267B2"/>
<path d="M383.34 280.212L397.968 271.764L393.096 268.956L378.468 277.392L383.34 280.212Z" fill="#4267B2"/>
<path d="M430.284 250.632C430.852 250.916 431.479 251.064 432.114 251.064C432.749 251.064 433.376 250.916 433.944 250.632C434.164 250.557 434.355 250.414 434.491 250.225C434.626 250.036 434.699 249.809 434.699 249.576C434.699 249.343 434.626 249.116 434.491 248.927C434.355 248.738 434.164 248.595 433.944 248.52C433.377 248.23 432.75 248.079 432.114 248.079C431.478 248.079 430.85 248.23 430.284 248.52C430.064 248.595 429.872 248.738 429.737 248.927C429.602 249.116 429.529 249.343 429.529 249.576C429.529 249.809 429.602 250.036 429.737 250.225C429.872 250.414 430.064 250.557 430.284 250.632Z" fill="#263238"/>
<path d="M436.128 267.204C437.261 267.778 438.512 268.077 439.782 268.077C441.052 268.077 442.303 267.778 443.436 267.204C445.452 266.004 445.452 264.144 443.436 262.98C442.303 262.406 441.052 262.108 439.782 262.108C438.512 262.108 437.261 262.406 436.128 262.98C434.112 264.144 434.112 266.04 436.128 267.204Z" fill="#263238"/>
<path d="M430.968 259.86C432.312 259.08 432.24 257.784 430.812 256.956L406.812 243.072C406.04 242.658 405.18 242.433 404.304 242.417C403.427 242.4 402.56 242.592 401.772 242.976C400.428 243.756 400.5 245.052 401.928 245.88L426 259.764C426.764 260.165 427.61 260.383 428.473 260.4C429.335 260.416 430.19 260.232 430.968 259.86Z" fill="#263238"/>
<path d="M199.2 388.548C211.332 395.532 239.772 390.456 262.728 377.196L325.788 340.8C348.744 327.54 357.504 311.148 345.348 304.176C333.192 297.204 304.728 302.304 281.748 315.552L218.808 351.9C195.864 365.148 187.08 381.6 199.2 388.548Z" fill="#4267B2" fill-opacity="0.2"/>
<path d="M382.8 83.424H382.86L393.24 77.424H393.324C399.864 74.112 408.6 75.024 418.008 81.144C436.92 93.312 451.356 121.392 450.264 143.844C449.712 155.04 445.464 162.72 438.9 166.104H438.84L428.448 172.104H428.376C421.836 175.428 413.088 174.504 403.668 168.396C384.768 156.216 370.332 128.148 371.424 105.696C372 94.488 376.308 86.808 382.8 83.424Z" fill="#37474F"/>
<path d="M428.976 171.792L438.876 166.032H438.948C445.452 162.636 449.748 154.956 450.3 143.772C450.78 133.764 448.176 122.64 443.472 112.308L433.08 118.308C437.796 128.64 440.4 139.764 439.908 149.784C439.392 160.704 435.264 168.3 428.976 171.792Z" fill="#263238"/>
<path d="M403.716 168.384C384.816 156.204 370.38 128.136 371.472 105.684C372.564 83.232 388.8 74.892 407.664 87.06C426.528 99.228 441.012 127.308 439.92 149.76C438.828 172.212 422.616 180.552 403.716 168.384Z" fill="#455A64"/>
<path d="M419.556 166.8C430.704 167.34 432.516 154.8 432.756 149.4C433.716 129.6 420.444 103.8 403.776 93.06C400.225 90.5723 396.091 89.043 391.776 88.62C380.64 88.08 378.828 100.62 378.576 106.02C377.616 125.82 390.876 151.62 407.556 162.42C411.107 164.908 415.241 166.437 419.556 166.86V166.8Z" fill="#FAFAFA"/>
<path d="M403.512 131.436C403.643 131.436 403.774 131.412 403.896 131.364C404.147 131.283 404.364 131.121 404.513 130.904C404.663 130.687 404.737 130.427 404.724 130.164V101.568C404.724 101.25 404.598 100.944 404.373 100.719C404.148 100.494 403.842 100.368 403.524 100.368C403.206 100.368 402.901 100.494 402.676 100.719C402.45 100.944 402.324 101.25 402.324 101.568V126.684L388.968 109.524C388.771 109.269 388.48 109.104 388.161 109.063C387.841 109.023 387.519 109.111 387.264 109.308C387.009 109.505 386.844 109.796 386.803 110.115C386.763 110.435 386.851 110.757 387.048 111.012L402.588 130.968C402.697 131.11 402.837 131.226 402.997 131.307C403.157 131.388 403.333 131.432 403.512 131.436Z" fill="#37474F"/>
<path d="M410.4 152.592C410.455 152.603 410.512 152.603 410.568 152.592C410.695 152.553 410.803 152.466 410.867 152.35C410.932 152.234 410.95 152.097 410.916 151.968L404.184 129.3C404.146 129.171 404.058 129.063 403.94 128.999C403.822 128.934 403.683 128.92 403.554 128.958C403.425 128.996 403.317 129.084 403.252 129.202C403.188 129.32 403.174 129.459 403.212 129.588L409.932 152.256C409.966 152.353 410.03 152.437 410.113 152.497C410.197 152.558 410.297 152.591 410.4 152.592Z" fill="#4267B2"/>
<path d="M403.896 124.488C401.664 123.06 399.756 124.044 399.636 126.684C399.643 128.124 399.99 129.542 400.649 130.822C401.308 132.103 402.26 133.209 403.428 134.052C405.648 135.492 407.556 134.508 407.688 131.868C407.678 130.427 407.329 129.008 406.671 127.726C406.012 126.445 405.062 125.335 403.896 124.488Z" fill="#4267B2"/>
<path d="M207.864 381.528L222.48 373.08L217.608 370.272L202.992 378.708L207.864 381.528Z" fill="#4267B2"/>
<path d="M237.108 364.644L251.736 356.196L246.852 353.388L232.236 361.824L237.108 364.644Z" fill="#4267B2"/>
<path d="M231.096 361.2C231.096 368.256 226.152 376.8 220.044 380.4C216.792 382.284 213.864 382.344 211.848 380.928C211.035 380.289 210.368 379.485 209.89 378.568C209.412 377.652 209.134 376.644 209.076 375.612C209.486 375.42 209.887 375.208 210.276 374.976C216.384 371.46 221.328 362.88 221.328 355.776C221.334 355.25 221.302 354.725 221.232 354.204C222.147 353.72 223.154 353.431 224.187 353.357C225.22 353.282 226.257 353.424 227.232 353.772C229.632 354.78 231.096 357.384 231.096 361.2Z" fill="#263238"/>
<path d="M232.092 346.704L231.888 346.584C228.816 344.952 224.688 345.252 220.044 347.916C210.624 353.352 202.98 366.576 202.98 377.46C202.98 382.932 204.912 386.76 208.032 388.536C211.152 390.312 215.364 390.012 220.032 387.336C229.452 381.9 237.084 368.664 237.084 357.78C237.096 352.308 235.2 348.48 232.092 346.704ZM220.092 380.376C216.828 382.26 213.9 382.32 211.884 380.892C210.108 379.692 209.028 377.292 209.028 373.992C209.028 366.948 213.984 358.392 220.092 354.792C222.876 353.184 225.408 352.908 227.292 353.736C229.62 354.732 231.084 357.336 231.084 361.176C231.096 368.28 226.152 376.86 220.044 380.4L220.092 380.376Z" fill="#37474F"/>
<path d="M227.856 354.06L227.724 353.988C225.732 352.92 223.032 353.124 220.044 354.84C213.936 358.368 208.98 366.948 208.98 374.04C208.98 377.64 210.18 380.04 212.256 381.24C214.332 382.44 217.056 382.2 220.044 380.448C226.152 376.92 231.096 368.34 231.096 361.248C231.096 357.696 229.86 355.2 227.856 354.06ZM220.044 377.88C217.428 379.392 215.076 379.44 213.444 378.288C212.028 377.292 211.152 375.384 211.152 372.744C211.32 369.66 212.213 366.658 213.758 363.983C215.303 361.308 217.456 359.035 220.044 357.348C220.885 356.761 221.851 356.378 222.865 356.23C223.88 356.083 224.915 356.173 225.888 356.496C227.76 357.3 228.936 359.388 228.936 362.496C228.769 365.579 227.876 368.579 226.331 371.252C224.786 373.925 222.632 376.196 220.044 377.88Z" fill="#4267B2"/>
<path d="M266.352 347.748L280.98 339.312L276.108 336.492L261.48 344.94L266.352 347.748Z" fill="#4267B2"/>
<path d="M295.608 330.864L310.224 322.428L305.352 319.608L290.724 328.056L295.608 330.864Z" fill="#4267B2"/>
<path d="M324.852 313.98L339.468 305.544L334.596 302.724L319.968 311.172L324.852 313.98Z" fill="#4267B2"/>
<path d="M252.072 235.464C252.225 235.26 252.439 235.11 252.683 235.035C252.927 234.961 253.188 234.966 253.429 235.051C253.67 235.135 253.877 235.294 254.022 235.504C254.166 235.714 254.24 235.965 254.232 236.22C254.326 236.903 254.256 237.599 254.029 238.249C253.801 238.9 253.423 239.488 252.924 239.964C251.964 240.792 250.992 240.456 250.764 239.208C250.671 238.525 250.741 237.83 250.969 237.179C251.196 236.528 251.574 235.941 252.072 235.464Z" fill="#4267B2"/>
<path d="M263.328 240.768L253.548 235.116L251.4 240.288L261.216 245.952L263.328 240.768Z" fill="#4267B2"/>
<path d="M261.828 241.092C262.788 240.276 263.748 240.612 263.988 241.86C264.076 242.542 264.003 243.235 263.774 243.884C263.544 244.532 263.166 245.117 262.668 245.592C261.708 246.42 260.736 246.084 260.508 244.836C260.42 244.152 260.494 243.457 260.724 242.807C260.953 242.157 261.331 241.57 261.828 241.092Z" fill="#4267B2"/>
<path d="M336.996 288.42C336.996 288.66 336.996 288.876 336.996 289.116C336.996 289.596 336.996 290.088 336.996 290.58C335.052 289.752 332.52 290.028 329.736 291.636C323.628 295.164 318.672 303.744 318.672 310.836C318.672 314.124 319.752 316.5 321.528 317.736C321.029 318.091 320.513 318.419 319.98 318.72L319.416 319.008L317.724 325.38L307.932 319.92C304.836 318.132 302.928 314.316 302.928 308.868C302.928 297.984 310.56 284.76 319.98 279.312C324.636 276.624 328.848 276.348 331.98 278.112L341.58 283.488L341.784 283.608L336.996 288.42Z" fill="#455A64"/>
<path d="M341.772 283.5L341.568 283.38C338.496 281.748 334.368 282.048 329.724 284.712C320.304 290.148 312.66 303.372 312.66 314.256C312.66 319.728 314.592 323.556 317.712 325.332C320.832 327.108 325.044 326.808 329.712 324.132C339.132 318.696 346.764 305.46 346.764 294.576C346.8 289.104 344.868 285.276 341.772 283.5ZM329.772 317.172C326.508 319.056 323.58 319.116 321.564 317.688C319.788 316.488 318.708 314.088 318.708 310.788C318.708 303.744 323.664 295.188 329.772 291.588C332.556 289.98 335.088 289.704 337.032 290.532C339.36 291.528 340.824 294.132 340.824 297.972C340.8 305.076 335.832 313.656 329.724 317.172H329.772Z" fill="#37474F"/>
<path d="M340.8 298.02C340.8 305.076 335.856 313.62 329.748 317.22C326.496 319.104 323.568 319.164 321.552 317.748C320.739 317.109 320.072 316.305 319.594 315.388C319.116 314.472 318.838 313.464 318.78 312.432C319.19 312.24 319.591 312.028 319.98 311.796C326.088 308.28 331.032 299.7 331.032 292.596C331.038 292.07 331.006 291.545 330.936 291.024C331.851 290.54 332.858 290.251 333.891 290.177C334.924 290.102 335.961 290.244 336.936 290.592C339.312 291.6 340.8 294.18 340.8 298.02Z" fill="#263238"/>
<path d="M337.536 290.856L337.404 290.772C335.412 289.716 332.7 289.908 329.724 291.636C323.616 295.164 318.66 303.732 318.66 310.836C318.66 314.436 319.86 316.836 321.936 318.036C324.012 319.236 326.736 318.984 329.724 317.232C335.832 313.716 340.776 305.136 340.776 298.032C340.8 294.492 339.6 292.008 337.536 290.856ZM329.724 314.664C327.096 316.188 324.744 316.236 323.124 315.084C321.696 314.088 320.832 312.18 320.832 309.54C321 306.456 321.893 303.454 323.438 300.779C324.983 298.104 327.136 295.831 329.724 294.144C331.956 292.848 333.996 292.62 335.556 293.292C337.428 294.096 338.604 296.184 338.604 299.292C338.437 302.372 337.546 305.369 336.003 308.04C334.46 310.711 332.309 312.981 329.724 314.664Z" fill="#4267B2"/>
<path d="M319.968 301.608L347.568 285.672C350.772 283.812 340.368 272.952 332.628 272.22C328.367 271.705 324.045 272.114 319.956 273.42C319.956 273.42 325.848 280.968 324.84 285.252C323.832 289.536 319.968 301.608 319.968 301.608Z" fill="#4267B2"/>
<path d="M280.98 256.572C280.98 256.572 320.988 276.756 322.716 277.968C324.444 279.18 322.716 293.256 319.968 301.608C317.22 309.96 312.996 322.8 311.304 326.4C309.612 330 307.404 331.344 303.348 333.684L274.548 350.328L235.56 355.08L220.08 346.68L224.112 321.348C224.112 321.348 265.548 299.304 271.224 296.028C276.9 292.752 293.688 277.38 280.98 256.572Z" fill="#4267B2"/>
<path opacity="0.2" d="M280.98 256.572C280.98 256.572 320.988 276.756 322.716 277.968C324.444 279.18 322.716 293.256 319.968 301.608C317.22 309.96 312.996 322.8 311.304 326.4C309.612 330 307.404 331.344 303.348 333.684L274.548 350.328L235.56 355.08L220.08 346.68L224.112 321.348C224.112 321.348 265.548 299.304 271.224 296.028C276.9 292.752 293.688 277.38 280.98 256.572Z" fill="black"/>
<path d="M323.484 296.796C327.084 287.124 329.772 279.108 329.316 273.696C328.764 267.276 326.364 262.032 315.78 259.392C305.196 256.752 290.4 256.8 290.4 256.8L285.9 259.404C285.9 259.404 316.332 277.044 319.788 278.964C321.9 280.164 324.156 285.456 320.016 301.62L320.724 302.028C321.072 302.244 322.332 299.904 323.484 296.796Z" fill="#4267B2"/>
<path opacity="0.3" d="M323.484 296.796C327.084 287.124 329.772 279.108 329.316 273.696C328.764 267.276 326.364 262.032 315.78 259.392C305.196 256.752 290.4 256.8 290.4 256.8L285.9 259.404C285.9 259.404 316.332 277.044 319.788 278.964C321.9 280.164 324.156 285.456 320.016 301.62L320.724 302.028C321.072 302.244 322.332 299.904 323.484 296.796Z" fill="white"/>
<path d="M300.432 267.828L305.352 265.02C305.352 265.02 305.064 247.968 297.888 243.828C290.712 239.688 266.352 242.508 266.352 242.508L261.48 245.316L300.432 267.828Z" fill="#4267B2"/>
<path d="M284.472 247.728C282.132 249.084 282.132 251.268 284.472 252.612C285.784 253.28 287.236 253.628 288.708 253.628C290.18 253.628 291.632 253.28 292.944 252.612C295.272 251.268 295.272 249.072 292.944 247.728C291.63 247.065 290.179 246.72 288.708 246.72C287.237 246.72 285.786 247.065 284.472 247.728Z" fill="#F0F0F0"/>
<path d="M291.96 255.876C290.316 256.836 290.316 258.384 291.96 259.332C292.889 259.807 293.917 260.055 294.96 260.055C296.003 260.055 297.031 259.807 297.96 259.332C299.616 258.384 299.616 256.836 297.96 255.876C297.03 255.407 296.002 255.162 294.96 255.162C293.918 255.162 292.89 255.407 291.96 255.876Z" fill="#F0F0F0"/>
<path d="M273.108 245.556C271.452 246.504 271.452 248.052 273.108 249.012C274.038 249.481 275.066 249.726 276.108 249.726C277.15 249.726 278.178 249.481 279.108 249.012C280.764 248.052 280.764 246.504 279.108 245.556C278.179 245.081 277.151 244.833 276.108 244.833C275.065 244.833 274.037 245.081 273.108 245.556Z" fill="#F0F0F0"/>
<path d="M301.2 262.884C302.16 262.056 303.12 262.392 303.36 263.64C303.448 264.324 303.375 265.019 303.146 265.669C302.917 266.319 302.538 266.907 302.04 267.384C301.887 267.588 301.673 267.738 301.429 267.813C301.185 267.887 300.924 267.882 300.683 267.797C300.442 267.713 300.235 267.554 300.09 267.344C299.946 267.134 299.872 266.883 299.88 266.628C299.788 265.944 299.859 265.248 300.089 264.597C300.318 263.946 300.699 263.359 301.2 262.884Z" fill="#4267B2"/>
<path d="M312.396 268.188L302.604 262.536L300.468 267.708L310.272 273.36L312.396 268.188Z" fill="#4267B2"/>
<path d="M310.884 268.512C311.037 268.308 311.251 268.158 311.495 268.083C311.739 268.009 312 268.014 312.241 268.099C312.482 268.183 312.689 268.342 312.834 268.552C312.978 268.762 313.052 269.013 313.044 269.268C313.135 269.952 313.063 270.648 312.834 271.299C312.604 271.949 312.224 272.537 311.724 273.012C310.764 273.84 309.804 273.492 309.564 272.256C309.475 271.572 309.547 270.877 309.777 270.226C310.006 269.576 310.385 268.989 310.884 268.512Z" fill="#4267B2"/>
<path d="M310.884 268.512C311.037 268.308 311.251 268.158 311.495 268.083C311.739 268.009 312 268.014 312.241 268.099C312.482 268.183 312.689 268.342 312.834 268.552C312.978 268.762 313.052 269.013 313.044 269.268C313.135 269.952 313.063 270.648 312.834 271.299C312.604 271.949 312.224 272.537 311.724 273.012C310.764 273.84 309.804 273.492 309.564 272.256C309.475 271.572 309.547 270.877 309.777 270.226C310.006 269.576 310.385 268.989 310.884 268.512Z" fill="black"/>
<path d="M227.316 351.6C227.316 351.84 227.316 352.056 227.316 352.296C227.316 352.776 227.316 353.268 227.316 353.76C225.372 352.932 222.84 353.208 220.116 354.816C214.008 358.344 209.052 366.924 209.052 374.016C209.052 377.304 210.132 379.68 211.908 380.916C211.409 381.271 210.893 381.599 210.36 381.9L209.796 382.188L208.104 388.56L198.312 383.1C195.216 381.312 193.308 377.496 193.308 372.048C193.308 361.164 200.94 347.94 210.36 342.492C215.016 339.804 219.228 339.528 222.36 341.292L231.96 346.668L232.164 346.788L227.316 351.6Z" fill="#455A64"/>
<path d="M198.108 332.556L190.8 357.888L205.428 366.336L213 341.16L198.108 332.556Z" fill="#4267B2"/>
<path opacity="0.2" d="M198.108 332.556L190.8 357.888L205.428 366.336L213 341.16L198.108 332.556Z" fill="black"/>
<path d="M198.108 332.556C198.108 332.556 206.4 339.6 213 341.16C221.664 343.26 235.44 343.488 240.324 343.824C247.788 344.34 253.428 344.328 256.068 343.38C259.488 342.18 268.68 336.84 271.224 335.376C276.096 332.568 278.172 321.516 264.744 318.492C255.665 316.611 246.416 315.666 237.144 315.672L198.108 332.556Z" fill="#4267B2"/>
<path d="M280.8 329.316C280.383 330.36 280.1 331.453 279.96 332.568C279.573 333.727 279.483 334.965 279.696 336.168C280.611 337.681 282.05 338.804 283.74 339.324C284.957 339.595 286.217 339.612 287.442 339.374C288.666 339.137 289.828 338.65 290.856 337.944C293.34 336.456 295.212 334.656 298.74 333.648C301.262 333.114 303.637 332.037 305.7 330.492C307.656 328.92 310.272 324.576 306.528 323.568C302.784 322.56 294.648 326.112 287.232 326.436L280.8 329.316Z" fill="#37474F"/>
<path d="M280.8 324.684V330.228C281.027 330.851 281.422 331.399 281.94 331.812C282.459 332.225 283.082 332.487 283.74 332.568C284.343 332.656 284.958 332.59 285.528 332.376C286.427 332.033 287.206 331.434 287.769 330.654C288.332 329.873 288.654 328.945 288.696 327.984L288.912 324.684H280.8Z" fill="#FFA8A7"/>
<path d="M291.36 290.4C291.36 297.3 289.416 327.132 289.416 327.132C289.416 327.132 286.596 330.732 280.464 327.132L278.4 293.796L291.36 290.4Z" fill="#37474F"/>
<path d="M259.2 319.8L278.4 308.736C279.187 308.323 279.846 307.703 280.305 306.942C280.765 306.182 281.008 305.311 281.008 304.422C281.008 303.533 280.765 302.662 280.305 301.901C279.846 301.141 279.187 300.521 278.4 300.108L264.096 291.852C263.291 291.444 262.401 291.231 261.498 291.231C260.595 291.231 259.705 291.444 258.9 291.852L239.7 302.916C238.917 303.332 238.261 303.953 237.804 304.713C237.347 305.473 237.106 306.343 237.106 307.23C237.106 308.117 237.347 308.987 237.804 309.747C238.261 310.507 238.917 311.128 239.7 311.544L254.004 319.8C254.809 320.208 255.699 320.421 256.602 320.421C257.505 320.421 258.395 320.208 259.2 319.8Z" fill="#4267B2"/>
<path d="M259.2 319.8L278.4 308.736C279.187 308.323 279.846 307.703 280.305 306.942C280.765 306.182 281.008 305.311 281.008 304.422C281.008 303.533 280.765 302.662 280.305 301.901C279.846 301.141 279.187 300.521 278.4 300.108L264.096 291.852C263.291 291.444 262.401 291.231 261.498 291.231C260.595 291.231 259.705 291.444 258.9 291.852L239.7 302.916C238.917 303.332 238.261 303.953 237.804 304.713C237.347 305.473 237.106 306.343 237.106 307.23C237.106 308.117 237.347 308.987 237.804 309.747C238.261 310.507 238.917 311.128 239.7 311.544L254.004 319.8C254.809 320.208 255.699 320.421 256.602 320.421C257.505 320.421 258.395 320.208 259.2 319.8Z" fill="white"/>
<path d="M239.7 305.916L254.004 314.172C254.809 314.58 255.699 314.793 256.602 314.793C257.505 314.793 258.395 314.58 259.2 314.172L278.4 303.108C278.713 303.002 278.986 302.8 279.179 302.531C279.371 302.262 279.475 301.939 279.475 301.608C279.475 301.277 279.371 300.954 279.179 300.685C278.986 300.416 278.713 300.214 278.4 300.108L264.096 291.852C263.291 291.444 262.401 291.231 261.498 291.231C260.595 291.231 259.705 291.444 258.9 291.852L239.7 302.916C239.387 303.022 239.114 303.224 238.922 303.493C238.729 303.762 238.625 304.085 238.625 304.416C238.625 304.747 238.729 305.07 238.922 305.339C239.114 305.608 239.387 305.81 239.7 305.916Z" fill="#4267B2"/>
<path d="M251.4 232.476L248.964 242.52L238.5 243.156L240.756 229.236L251.4 232.476Z" fill="#FFA8A7"/>
<path d="M261.6 224.916C261.6 224.916 262.8 229.164 262.308 229.404C261.552 229.519 260.784 229.519 260.028 229.404L261.6 224.916Z" fill="#F28F8F"/>
<path d="M259.596 211.356C261.276 213.336 262.812 216.588 261.624 224.556C260.328 233.268 258.72 234.276 257.424 235.116C255.732 236.22 248.964 235.632 247.056 234.24C244.764 232.572 241.224 227.28 240.384 222.06C239.4 215.928 241.452 209.124 245.964 207.96C252.312 206.316 258.168 209.676 259.596 211.356Z" fill="#FFA8A7"/>
<path d="M239.7 232.056C241.32 233.736 244.644 234.192 246.732 234.576C248.82 234.96 255.24 235.38 257.136 230.808C259.032 226.236 257.736 222.948 260.064 221.844C262.392 220.74 264.72 220.02 265.332 219.444C265.944 218.868 265.956 211.344 259.704 207.444C253.452 203.544 243.876 202.644 237.576 210.552C232.8 216.66 234.756 226.896 239.7 232.056Z" fill="#455A64"/>
<path d="M246 234.636C247.62 234.78 252.744 233.976 254.292 231.864C255.84 229.752 256.464 225.972 256.692 223.992C256.713 223.212 256.999 222.463 257.503 221.867C258.007 221.272 258.698 220.866 259.464 220.716C261.012 220.224 264.432 218.544 264.432 218.544V217.608C265.535 217.539 266.641 217.539 267.744 217.608C268.464 217.74 268.068 218.808 266.244 219.732C264.42 220.656 259.416 222.444 258.648 223.056C257.88 223.668 257.52 226.248 256.908 228.996C256.296 231.744 254.4 235.848 246 234.636Z" fill="#37474F"/>
<path d="M260.4 246L266.4 242.556C266.976 240.816 266.052 239.94 264.42 240.048C262.788 240.156 263.292 238.572 262.296 238.128C260.988 237.528 260.244 237.864 259.656 237.588C259.068 237.312 258.816 236.616 258.048 236.532C254.616 236.208 252.276 241.104 252.276 241.104L260.4 246Z" fill="#F28F8F"/>
<path d="M219.672 290.064C219.672 290.064 246.18 276.924 250.8 274.8C255.42 272.676 262.668 269.592 266.52 269.592C268.025 269.716 269.435 270.379 270.491 271.46C271.547 272.54 272.178 273.964 272.268 275.472C272.318 277.787 272.185 280.102 271.872 282.396C264.589 284.785 257.146 286.658 249.6 288C238.572 289.92 219.672 290.064 219.672 290.064Z" fill="#37474F"/>
<path d="M222.552 282.468C222.552 287.916 222.036 293.58 224.304 297.564C226.572 301.548 238.86 310.764 250.428 308.832C257.988 307.56 280.428 297.228 280.428 297.228C280.428 297.228 291.312 293.232 291.36 290.388C291.432 286.2 291.144 280.296 281.652 280.548C273 280.776 247.476 286.104 247.476 286.104L222.552 282.468Z" fill="#455A64"/>
<path d="M229.956 239.304C234.06 235.02 236.832 234.66 238.8 235.188C243.323 236.482 247.702 238.236 251.868 240.42C251.868 240.42 250.284 255.756 257.784 260.172V284.076C257.784 284.076 257.556 286.668 254.292 289.248C251.412 291.516 244.896 293.808 237.12 293.16C227.88 292.392 222.552 282.468 222.552 282.468C222.552 282.468 222.312 262.92 223.62 255.156C225.156 246.096 228.54 240.792 229.956 239.304Z" fill="#455A64"/>
<path d="M257.784 261.336C257.784 261.336 253.248 257.736 251.868 253.056C251.868 253.056 252.408 260.4 257.784 264.12V261.336Z" fill="#37474F"/>
<path d="M299.772 272.616C301.926 272.705 304.046 272.048 305.772 270.756C305.772 270.756 307.86 266.7 310.428 267.048C310.428 267.048 310.884 265.32 309.828 264.756C308.772 264.192 308.316 264.348 307.884 263.748C307.452 263.148 307.404 262.032 305.484 262.032C304.692 262.032 304.8 261.468 302.88 261.24C300.96 261.012 299.064 265.44 297.66 265.44L299.772 272.616Z" fill="#FFA8A7"/>
<path d="M251.868 240.42C258.456 241.44 260.844 243.396 263.244 245.616C265.644 247.836 280.332 262.572 280.332 262.572L298.116 265.128C299.051 265.885 299.736 266.905 300.084 268.056C300.804 270.144 300.156 272.424 299.472 272.964C299.472 272.964 281.832 274.02 278.364 273.36C274.896 272.7 257.724 261.3 257.724 261.3C256.083 260.062 254.706 258.508 253.676 256.729C252.645 254.951 251.981 252.983 251.724 250.944C250.608 243.708 251.868 240.42 251.868 240.42Z" fill="#455A64"/>
<path d="M236.052 303.804L208.8 337.068C208.497 337.106 208.193 337.126 207.888 337.128C206.807 337.145 205.739 336.893 204.78 336.396L181.764 323.1L180.204 322.2C179.352 321.708 178.644 319.692 178.644 317.7V312.096C178.643 306.339 180.157 300.684 183.035 295.698C185.912 290.712 190.051 286.571 195.036 283.692L222.516 267.828L251.76 284.712L236.052 303.804Z" fill="#4267B2"/>
<g opacity="0.1">
<path opacity="0.1" d="M236.052 303.804L208.8 337.068C208.497 337.106 208.193 337.126 207.888 337.128C206.807 337.145 205.739 336.893 204.78 336.396L181.764 323.1L180.204 322.2C179.352 321.708 178.644 319.692 178.644 317.7V312.096C178.643 306.339 180.157 300.684 183.035 295.698C185.912 290.712 190.051 286.571 195.036 283.692L222.516 267.828L251.76 284.712L236.052 303.804Z" fill="black"/>
</g>
<path d="M226.656 315.276L251.724 284.724L222.48 267.84L195.012 283.692C191.459 285.749 188.324 288.456 185.772 291.672L226.656 315.276Z" fill="#4267B2"/>
<path d="M251.724 309.252C251.724 311.244 251.028 313.26 250.164 313.752L248.604 314.652L210.972 336.384C210.287 336.753 209.537 336.985 208.764 337.068C208.462 337.106 208.157 337.126 207.852 337.128V328.98C207.851 323.222 209.367 317.565 212.246 312.579C215.126 307.593 219.268 303.453 224.256 300.576L227.364 298.788L251.724 284.712V309.252Z" fill="#4267B2"/>
<g opacity="0.2">
<path opacity="0.2" d="M251.724 309.252C251.724 311.244 251.028 313.26 250.164 313.752L248.604 314.652L210.972 336.384C210.287 336.753 209.537 336.985 208.764 337.068C208.462 337.106 208.157 337.126 207.852 337.128V328.98C207.851 323.222 209.367 317.565 212.246 312.579C215.126 307.593 219.268 303.453 224.256 300.576L227.364 298.788L251.724 284.712V309.252Z" fill="black"/>
</g>
<path d="M259.8 350.412L274.524 350.364L295.596 338.196L274.956 353.112L259.416 353.328L259.8 350.412Z" fill="#E0E0E0"/>
<path d="M224.052 371.364C224.052 371.364 250.596 361.356 252.852 360.18C255.5 358.557 258.012 356.723 260.364 354.696C260.844 354.061 261.069 353.27 260.996 352.477C260.923 351.685 260.556 350.948 259.968 350.412C259.968 350.412 249.168 349.92 246.396 350.772C244.848 351.24 219.864 359.256 219.864 359.256L224.052 371.364Z" fill="#E0E0E0"/>
<path d="M222.864 360.18C220.668 358.296 218.46 359.076 217.92 361.908C217.714 363.471 217.879 365.06 218.402 366.546C218.926 368.033 219.792 369.375 220.932 370.464C223.128 372.348 225.336 371.58 225.876 368.736C226.081 367.173 225.915 365.585 225.392 364.098C224.869 362.612 224.003 361.269 222.864 360.18Z" fill="#455A64"/>
</svg>
