<svg width="482" height="300" viewBox="0 0 482 300" fill="none" xmlns="http://www.w3.org/2000/svg">
<g clip-path="url(#clip0_74_447)">
<path d="M474.186 121.19C456.535 52.0054 395.544 2.06407 323.954 0.0609646C286.106 -0.998016 246.279 11.5137 217.283 55.2967C165.449 133.563 220.468 187.648 258.827 213.348C277.358 225.789 294.056 240.749 308.437 257.794C334.347 288.44 384.192 326.522 443.554 266.853C486.58 223.605 485.944 167.273 474.186 121.19Z" fill="#F2F2F2"/>
<path d="M66.2518 173.641C65.7762 172.939 65.3087 172.219 64.8621 171.499L65.5834 171.054C66.024 171.765 66.4853 172.476 66.9545 173.168L66.2518 173.641Z" fill="#3F3D56"/>
<path d="M62.3049 166.969C61.5183 165.43 60.7873 163.84 60.1322 162.244L60.9169 161.924C61.5635 163.499 62.2847 165.067 63.0607 166.585L62.3049 166.969ZM58.3598 157.356C57.8395 155.711 57.3821 154.022 57.0001 152.339L57.8275 152.152C58.2041 153.813 58.6553 155.479 59.1686 157.102L58.3598 157.356ZM56.0624 147.227C55.822 145.521 55.6497 143.781 55.5499 142.056L56.3968 142.007C56.4949 143.71 56.6651 145.426 56.9022 147.109L56.0624 147.227ZM56.3094 136.88L55.4617 136.86C55.5025 135.132 55.6152 133.388 55.7963 131.676L56.6398 131.764C56.4609 133.454 56.3498 135.175 56.3094 136.88ZM57.3896 126.693L56.5564 126.536C56.8794 124.841 57.2775 123.138 57.7399 121.476L58.5573 121.702C58.101 123.342 57.7082 125.021 57.3896 126.693ZM60.1363 116.823L59.3408 116.531C59.9404 114.911 60.616 113.297 61.3488 111.731L62.1173 112.089C61.3943 113.633 60.7278 115.226 60.1363 116.823ZM176.282 114.21C175.619 112.643 174.882 111.083 174.089 109.573L174.841 109.182C175.644 110.712 176.392 112.293 177.064 113.882L176.282 114.21ZM64.4841 107.534L63.7479 107.115C64.6067 105.618 65.5395 104.136 66.5203 102.712L67.2193 103.191C66.2517 104.596 65.3314 106.057 64.4841 107.534ZM171.52 105.132C170.607 103.694 169.622 102.276 168.593 100.917L169.27 100.408C170.313 101.785 171.311 103.223 172.236 104.68L171.52 105.132ZM70.3033 99.0862L69.6457 98.552C70.7398 97.2141 71.9025 95.9052 73.1024 94.6614L73.7136 95.2471C72.5299 96.4744 71.3824 97.7659 70.3033 99.0862ZM165.328 96.9551C164.191 95.6842 162.986 94.4451 161.749 93.272L162.333 92.6595C163.588 93.8485 164.808 95.1043 165.961 96.3921L165.328 96.9551ZM77.4275 91.6995L76.8664 91.0659C78.1639 89.9242 79.5253 88.8219 80.9125 87.7898L81.4198 88.4671C80.051 89.4856 78.7079 90.573 77.4275 91.6995ZM157.879 89.8934C156.549 88.8248 155.158 87.798 153.745 86.8421L154.221 86.1425C155.653 87.1117 157.063 88.152 158.411 89.2351L157.879 89.8934ZM85.6635 85.5727L85.2138 84.8561C86.6822 83.9406 88.2057 83.0757 89.7422 82.2853L90.131 83.0365C88.6152 83.8162 87.1122 84.6696 85.6635 85.5727ZM149.373 84.1396C147.883 83.3015 146.341 82.5162 144.792 81.8056L145.146 81.0375C146.717 81.758 148.279 82.554 149.789 83.4032L149.373 84.1396ZM94.7926 80.8767L94.4671 80.0962C96.0653 79.4346 97.7103 78.8317 99.3566 78.3046L99.6158 79.1095C97.9919 79.6294 96.369 80.224 94.7926 80.8767ZM140.033 79.857C138.428 79.2763 136.777 78.7554 135.128 78.309L135.35 77.4934C137.022 77.9457 138.695 78.4737 140.322 79.0625L140.033 79.857ZM104.573 77.746L104.382 76.9225C106.066 76.5333 107.789 76.2095 109.504 75.9598L109.626 76.7962C107.935 77.0426 106.235 77.3621 104.573 77.746V77.746ZM130.112 77.1718C128.435 76.8639 126.722 76.6216 125.019 76.452L125.104 75.6108C126.829 75.7829 128.566 76.0283 130.265 76.3405L130.112 77.1718ZM114.741 76.2648L114.688 75.4211C116.413 75.3125 118.171 75.274 119.9 75.3051L119.884 76.1504C118.178 76.1193 116.444 76.1579 114.741 76.2648Z" fill="#3F3D56"/>
<path d="M178.837 121.484C178.609 120.679 178.363 119.869 178.103 119.074L178.909 118.812C179.172 119.617 179.423 120.439 179.653 121.255L178.837 121.484Z" fill="#3F3D56"/>
<path d="M173.665 74.1451H172.817C172.817 73.2991 172.832 72.4408 172.862 71.5942L173.709 71.6235C173.68 72.4606 173.665 73.3088 173.665 74.1451Z" fill="#3F3D56"/>
<path d="M174.069 66.5404L173.225 66.4508C173.407 64.7484 173.653 63.0322 173.956 61.3498L174.791 61.4992C174.491 63.1618 174.248 64.858 174.069 66.5404ZM175.874 56.5228L175.053 56.3139C175.477 54.6548 175.968 52.9914 176.511 51.3697L177.315 51.6372C176.779 53.2399 176.294 54.8835 175.874 56.5228ZM311.127 47.6043C310.493 46.0356 309.794 44.4704 309.048 42.9527L309.81 42.5812C310.564 44.1171 311.272 45.7009 311.914 47.2885L311.127 47.6043ZM179.108 46.8634L178.325 46.5386C178.984 44.9589 179.71 43.382 180.483 41.8515L181.241 42.2316C180.477 43.7442 179.759 45.3023 179.108 46.8634ZM306.639 38.4615C305.786 37.0008 304.87 35.5514 303.913 34.1538L304.614 33.6774C305.582 35.0918 306.509 36.5583 307.372 38.0364L306.639 38.4615ZM183.702 37.7654L182.974 37.332C183.853 35.8642 184.798 34.4076 185.783 33.0028L186.478 33.487C185.505 34.8753 184.571 36.3148 183.702 37.7654H183.702ZM300.885 30.051C299.831 28.7241 298.716 27.4196 297.572 26.1735L298.197 25.6027C299.355 26.8636 300.483 28.1835 301.55 29.5259L300.885 30.051ZM189.554 29.4178L188.895 28.8853C189.977 27.5554 191.12 26.2482 192.293 25L192.912 25.5779C191.753 26.8116 190.623 28.1036 189.554 29.4178ZM293.989 22.541C292.757 21.3775 291.467 20.244 290.156 19.1719L290.694 18.5185C292.02 19.603 293.325 20.7501 294.573 21.9273L293.989 22.541ZM196.535 21.9867L195.959 21.3663C197.218 20.2042 198.536 19.0722 199.875 18.0021L200.406 18.6617C199.082 19.7194 197.78 20.838 196.535 21.9867V21.9867ZM286.092 16.0837C284.706 15.1067 283.268 14.1676 281.817 13.2926L282.255 12.5694C283.724 13.4548 285.179 14.405 286.581 15.3935L286.092 16.0837ZM204.503 15.6205L204.021 14.925C205.433 13.9534 206.898 13.0204 208.376 12.1515L208.807 12.8796C207.346 13.7384 205.898 14.6605 204.503 15.6205V15.6205ZM277.352 10.8142C275.84 10.0444 274.282 9.32041 272.72 8.66186L273.05 7.88339C274.631 8.54958 276.208 9.28244 277.738 10.0613L277.352 10.8142ZM213.297 10.4536L212.919 9.69666C214.456 8.93636 216.039 8.22208 217.626 7.57384L217.948 8.35602C216.38 8.99659 214.815 9.70241 213.297 10.4536V10.4536ZM267.944 6.848C266.339 6.30357 264.693 5.81033 263.049 5.38209L263.264 4.56442C264.927 4.9976 266.594 5.49684 268.217 6.04766L267.944 6.848ZM222.737 6.59787L222.473 5.79464C224.103 5.26218 225.774 4.78194 227.441 4.36731L227.646 5.18746C225.999 5.59712 224.348 6.07158 222.737 6.59785L222.737 6.59787ZM258.062 4.2728C256.394 3.96425 254.694 3.71227 253.008 3.52364L253.103 2.68368C254.809 2.87458 256.529 3.12945 258.217 3.44152L258.062 4.2728ZM232.644 4.1337L232.499 3.30075C234.189 3.00749 235.911 2.77158 237.62 2.59927L237.706 3.44047C236.017 3.61052 234.314 3.84372 232.644 4.13369L232.644 4.1337ZM247.914 3.13606C246.215 3.06734 244.489 3.05826 242.804 3.10841L242.778 2.2635C244.484 2.21274 246.23 2.22161 247.948 2.29157L247.914 3.13606Z" fill="#3F3D56"/>
<path d="M313.608 54.8581C313.381 54.0536 313.136 53.2415 312.88 52.4438L313.687 52.1863C313.947 52.9932 314.195 53.815 314.424 54.629L313.608 54.8581Z" fill="#3F3D56"/>
<path d="M65.7558 184.133C73.5573 184.133 79.8816 183.66 79.8816 183.077C79.8816 182.494 73.5573 182.021 65.7558 182.021C57.9544 182.021 51.6301 182.494 51.6301 183.077C51.6301 183.66 57.9544 184.133 65.7558 184.133Z" fill="#4267B2"/>
<path d="M178.409 133.093C186.21 133.093 192.535 132.62 192.535 132.037C192.535 131.454 186.21 130.981 178.409 130.981C170.607 130.981 164.283 131.454 164.283 132.037C164.283 132.62 170.607 133.093 178.409 133.093Z" fill="#4267B2"/>
<path d="M317.548 79.9413C325.349 79.9413 331.673 79.4685 331.673 78.8853C331.673 78.3021 325.349 77.8293 317.548 77.8293C309.746 77.8293 303.422 78.3021 303.422 78.8853C303.422 79.4685 309.746 79.9413 317.548 79.9413Z" fill="#4267B2"/>
<path d="M311.951 75.4185L269.475 117.757L270.074 118.355L312.55 76.0162L311.951 75.4185Z" fill="#3F3D56"/>
<path d="M257.16 123.167H185.825V124.012H257.16V123.167Z" fill="#3F3D56"/>
<path d="M172.805 128.929L132.907 168.698L133.506 169.296L173.404 129.527L172.805 128.929Z" fill="#3F3D56"/>
<path d="M120.846 174.207H73.1718V175.052H120.846V174.207Z" fill="#3F3D56"/>
<path d="M60.2121 179.557L12.8375 226.778L13.4371 227.376L60.8117 180.155L60.2121 179.557Z" fill="#3F3D56"/>
<path d="M65.7558 182.444C64.2052 182.444 62.6894 181.986 61.4 181.127C60.1107 180.268 59.1058 179.048 58.5123 177.62C57.9189 176.192 57.7636 174.621 58.0661 173.105C58.3686 171.589 59.1153 170.196 60.2117 169.103C61.3082 168.01 62.7052 167.266 64.226 166.965C65.7469 166.663 67.3233 166.818 68.7559 167.409C70.1885 168.001 71.413 169.002 72.2745 170.288C73.136 171.573 73.5958 173.084 73.5958 174.629C73.5935 176.701 72.7667 178.687 71.297 180.152C69.8272 181.617 67.8344 182.442 65.7558 182.444ZM65.7558 167.66C64.3729 167.66 63.0211 168.068 61.8712 168.834C60.7213 169.6 59.8251 170.688 59.2959 171.962C58.7666 173.235 58.6281 174.637 58.8979 175.989C59.1676 177.341 59.8336 178.583 60.8114 179.557C61.7893 180.532 63.0351 181.196 64.3915 181.465C65.7478 181.734 67.1537 181.596 68.4313 181.068C69.709 180.541 70.801 179.647 71.5693 178.501C72.3376 177.355 72.7477 176.008 72.7477 174.629C72.7456 172.781 72.0083 171.01 70.6975 169.703C69.3868 168.397 67.6096 167.662 65.7558 167.66Z" fill="#3F3D56"/>
<path d="M128.262 182.444C126.712 182.444 125.196 181.986 123.906 181.127C122.617 180.268 121.612 179.048 121.019 177.62C120.425 176.192 120.27 174.621 120.573 173.105C120.875 171.589 121.622 170.196 122.718 169.103C123.815 168.01 125.212 167.266 126.733 166.965C128.254 166.663 129.83 166.818 131.263 167.409C132.695 168.001 133.92 169.002 134.781 170.288C135.643 171.573 136.102 173.084 136.102 174.629C136.1 176.701 135.273 178.687 133.804 180.153C132.334 181.618 130.341 182.442 128.262 182.444ZM128.262 167.66C126.879 167.66 125.527 168.069 124.378 168.834C123.228 169.6 122.332 170.689 121.802 171.962C121.273 173.236 121.135 174.637 121.404 175.989C121.674 177.341 122.34 178.583 123.318 179.557C124.296 180.532 125.542 181.196 126.898 181.465C128.254 181.734 129.66 181.596 130.938 181.068C132.216 180.541 133.308 179.647 134.076 178.501C134.844 177.355 135.254 176.008 135.254 174.629C135.252 172.781 134.515 171.01 133.204 169.703C131.893 168.397 130.116 167.662 128.262 167.66Z" fill="#3F3D56"/>
<path d="M178.409 131.404C176.858 131.404 175.342 130.946 174.053 130.087C172.764 129.228 171.759 128.008 171.166 126.58C170.572 125.152 170.417 123.581 170.719 122.065C171.022 120.549 171.769 119.156 172.865 118.064C173.962 116.971 175.359 116.226 176.879 115.925C178.4 115.623 179.977 115.778 181.409 116.369C182.842 116.961 184.066 117.963 184.928 119.248C185.789 120.533 186.249 122.044 186.249 123.589C186.247 125.661 185.42 127.647 183.95 129.112C182.48 130.578 180.487 131.402 178.409 131.404ZM178.409 116.62C177.026 116.62 175.674 117.029 174.524 117.795C173.374 118.56 172.478 119.649 171.949 120.922C171.42 122.196 171.281 123.597 171.551 124.949C171.821 126.301 172.487 127.543 173.465 128.517C174.443 129.492 175.689 130.156 177.045 130.425C178.401 130.694 179.807 130.556 181.085 130.028C182.362 129.501 183.454 128.607 184.223 127.461C184.991 126.315 185.401 124.968 185.401 123.589C185.399 121.741 184.661 119.97 183.351 118.663C182.04 117.357 180.263 116.622 178.409 116.62V116.62Z" fill="#3F3D56"/>
<path d="M264.576 131.404C263.025 131.404 261.509 130.946 260.22 130.087C258.931 129.228 257.926 128.008 257.333 126.58C256.739 125.152 256.584 123.581 256.886 122.065C257.189 120.549 257.936 119.156 259.032 118.064C260.129 116.971 261.526 116.226 263.046 115.925C264.567 115.623 266.144 115.778 267.576 116.369C269.009 116.961 270.233 117.963 271.095 119.248C271.956 120.533 272.416 122.044 272.416 123.589C272.414 125.661 271.587 127.647 270.117 129.112C268.647 130.578 266.654 131.402 264.576 131.404ZM264.576 116.62C263.193 116.62 261.841 117.029 260.691 117.795C259.541 118.56 258.645 119.649 258.116 120.922C257.587 122.196 257.448 123.597 257.718 124.949C257.988 126.301 258.654 127.543 259.632 128.517C260.61 129.492 261.856 130.156 263.212 130.425C264.568 130.694 265.974 130.556 267.252 130.028C268.529 129.501 269.621 128.607 270.39 127.461C271.158 126.315 271.568 124.968 271.568 123.589C271.566 121.741 270.828 119.97 269.518 118.663C268.207 117.357 266.43 116.622 264.576 116.62V116.62Z" fill="#3F3D56"/>
<path d="M317.548 78.2521C315.997 78.252 314.481 77.7937 313.192 76.935C311.903 76.0763 310.898 74.8559 310.304 73.4279C309.711 72 309.556 70.4287 309.858 68.9129C310.161 67.397 310.907 66.0045 312.004 64.9117C313.1 63.8188 314.497 63.0745 316.018 62.773C317.539 62.4714 319.115 62.6262 320.548 63.2176C321.98 63.8091 323.205 64.8107 324.066 66.0958C324.928 67.3809 325.388 68.8917 325.388 70.4373C325.385 72.5092 324.559 74.4956 323.089 75.9606C321.619 77.4256 319.626 78.2497 317.548 78.2521ZM317.548 63.4681C316.165 63.4682 314.813 63.8769 313.663 64.6427C312.513 65.4086 311.617 66.497 311.088 67.7705C310.559 69.044 310.42 70.4453 310.69 71.7972C310.96 73.1491 311.626 74.3909 312.604 75.3656C313.582 76.3402 314.827 77.004 316.184 77.2729C317.54 77.5417 318.946 77.4037 320.223 76.8762C321.501 76.3487 322.593 75.4554 323.361 74.3093C324.13 73.1632 324.54 71.8157 324.54 70.4373C324.537 68.5896 323.8 66.8182 322.489 65.5117C321.179 64.2051 319.401 63.4702 317.548 63.4681V63.4681Z" fill="#3F3D56"/>
<path d="M7.84019 240.172C6.28955 240.172 4.77371 239.713 3.48437 238.855C2.19504 237.996 1.19011 236.776 0.596677 235.348C0.00324182 233.92 -0.15205 232.348 0.150442 230.833C0.452933 229.317 1.19962 227.924 2.29608 226.831C3.39254 225.738 4.78952 224.994 6.31037 224.692C7.83122 224.391 9.40763 224.546 10.8402 225.137C12.2729 225.729 13.4973 226.73 14.3588 228.015C15.2203 229.3 15.6802 230.811 15.6802 232.357C15.6778 234.429 14.8511 236.415 13.3813 237.88C11.9115 239.345 9.91878 240.169 7.84019 240.172ZM7.84019 225.388C6.45728 225.388 5.10541 225.796 3.95554 226.562C2.80567 227.328 1.90945 228.416 1.3802 229.69C0.850953 230.963 0.712456 232.365 0.982224 233.717C1.25199 235.068 1.91791 236.31 2.89576 237.285C3.87361 238.26 5.11948 238.924 6.47582 239.192C7.83216 239.461 9.23804 239.323 10.5157 238.796C11.7933 238.268 12.8854 237.375 13.6537 236.229C14.422 235.083 14.8321 233.735 14.8321 232.357C14.83 230.509 14.0926 228.738 12.7819 227.431C11.4711 226.125 9.69392 225.39 7.84019 225.388Z" fill="#3F3D56"/>
<path d="M65.7558 128.517C63.9008 128.517 62.064 128.882 60.3501 129.589C58.6363 130.297 57.0791 131.334 55.7674 132.641C54.4557 133.949 53.4152 135.501 52.7053 137.209C51.9954 138.917 51.6301 140.748 51.6301 142.597C51.6301 150.373 65.7558 176.037 65.7558 176.037C65.7558 176.037 79.8816 150.373 79.8816 142.597C79.8816 140.748 79.5162 138.917 78.8063 137.209C78.0965 135.501 77.056 133.949 75.7443 132.641C74.4326 131.334 72.8753 130.297 71.1615 129.589C69.4477 128.882 67.6109 128.517 65.7558 128.517ZM65.7558 149.989C64.2891 149.989 62.8553 149.556 61.6357 148.744C60.4162 147.931 59.4656 146.777 58.9043 145.426C58.343 144.075 58.1962 142.589 58.4823 141.155C58.7685 139.721 59.4748 138.404 60.5119 137.37C61.5491 136.337 62.8705 135.633 64.309 135.347C65.7476 135.062 67.2387 135.209 68.5938 135.768C69.9489 136.328 71.1071 137.275 71.922 138.491C72.7369 139.706 73.1719 141.135 73.1719 142.597C73.1719 144.558 72.3905 146.438 70.9998 147.824C69.609 149.21 67.7227 149.989 65.7558 149.989Z" fill="#4267B2"/>
<path d="M178.409 75.7173C174.662 75.7173 171.069 77.2007 168.42 79.8412C165.771 82.4817 164.283 86.063 164.283 89.7973C164.283 97.5734 178.409 123.237 178.409 123.237C178.409 123.237 192.535 97.5734 192.535 89.7973C192.535 87.9482 192.169 86.1173 191.459 84.4091C190.749 82.7008 189.709 81.1486 188.397 79.8412C187.086 78.5338 185.528 77.4966 183.814 76.789C182.101 76.0815 180.264 75.7173 178.409 75.7173ZM178.409 97.1892C176.942 97.1892 175.508 96.7557 174.289 95.9435C173.069 95.1312 172.119 93.9767 171.557 92.626C170.996 91.2753 170.849 89.7891 171.135 88.3552C171.421 86.9213 172.128 85.6041 173.165 84.5703C174.202 83.5366 175.523 82.8325 176.962 82.5473C178.401 82.2621 179.892 82.4085 181.247 82.968C182.602 83.5274 183.76 84.4749 184.575 85.6905C185.39 86.9061 185.825 88.3353 185.825 89.7973C185.825 91.7577 185.043 93.6379 183.653 95.0242C182.262 96.4104 180.376 97.1892 178.409 97.1892Z" fill="#4267B2"/>
<path d="M455.72 298.968H263.403V300H455.72V298.968Z" fill="#2F2E41"/>
<path d="M422.102 30.6144C419.112 39.4378 414.528 47.4773 405.185 47.4773C395.841 47.4773 388.793 39.9127 388.267 30.6144C387.594 18.7331 395.626 13.7024 405.185 13.7516C416.477 13.8097 425.65 20.1432 422.102 30.6144Z" fill="#4A4347"/>
<path d="M421.657 29.2832H388.267V71.4403H421.657V29.2832Z" fill="#4A4347"/>
<path d="M422.637 60.6904H425.478C425.478 60.6904 432.42 69.4975 429.264 81.4499C426.109 93.4023 428.633 95.6041 428.633 95.6041C428.633 95.6041 432.741 108.548 428.323 128.049C423.906 147.55 432.42 152.85 432.42 152.85L424.531 137.123L420.113 95.6041L422.637 60.6904Z" fill="#F7D002"/>
<path opacity="0.1" d="M422.637 61.7251H425.478C425.478 61.7251 432.42 70.5321 429.264 82.4846C426.109 94.437 428.633 96.6387 428.633 96.6387C428.633 96.6387 432.741 109.582 428.323 129.084C423.906 148.585 432.42 153.885 432.42 153.885L424.531 138.158L420.113 96.6387L422.637 61.7251Z" fill="#F7D002"/>
<path d="M412.697 45.4351C412.697 45.4351 410.173 55.5003 411.435 55.5003C412.697 55.5003 417.115 60.8475 417.115 60.8475L419.955 71.2272L417.746 78.7761L410.173 77.2034L400.706 66.8237L397.866 63.9928L395.341 54.8712C395.341 54.8712 398.497 51.0968 396.288 47.9514C394.079 44.8061 412.697 45.4351 412.697 45.4351Z" fill="#FBBEBE"/>
<path opacity="0.1" d="M412.697 45.4351C412.697 45.4351 410.173 55.5003 411.435 55.5003C412.697 55.5003 417.115 60.8475 417.115 60.8475L419.955 71.2272L417.746 78.7761L410.173 77.2034L400.706 66.8237L397.866 63.9928L395.341 54.8712C395.341 54.8712 398.497 51.0968 396.288 47.9514C394.079 44.8061 412.697 45.4351 412.697 45.4351Z" fill="black"/>
<path d="M336.332 73.429L329.389 62.1057C329.389 62.1057 321.895 45.5785 316.531 51.5547C311.166 57.531 324.656 69.6546 324.656 69.6546L331.598 78.7762L336.332 73.429Z" fill="#FBBEBE"/>
<path d="M428.475 171.879L423.426 208.68C423.426 208.68 424.057 211.511 417.746 221.891C411.435 232.271 394.395 254.917 394.395 254.917L389.346 245.481C389.346 245.481 395.341 215.6 405.755 209.309L404.493 164.016L428.475 171.879Z" fill="#FBBEBE"/>
<path opacity="0.1" d="M428.475 171.879L423.426 208.68C423.426 208.68 424.057 211.511 417.746 221.891C411.435 232.271 394.395 254.917 394.395 254.917L389.346 245.481C389.346 245.481 395.341 215.6 405.755 209.309L404.493 164.016L428.475 171.879Z" fill="black"/>
<path d="M389.346 241.707L396.288 254.917C396.288 254.917 390.608 270.959 392.817 272.531C395.026 274.104 397.866 288.258 391.87 286.686C385.875 285.113 381.141 278.822 381.141 277.879C381.141 276.935 384.612 263.724 382.719 260.579C380.826 257.434 379.563 256.49 379.563 256.49L374.83 264.353L373.252 263.41L381.141 250.199C381.141 250.199 382.088 247.683 385.875 246.11L389.346 241.707Z" fill="#2F2E41"/>
<path opacity="0.1" d="M389.346 241.707L396.288 254.917C396.288 254.917 390.608 270.959 392.817 272.531C395.026 274.104 397.866 288.258 391.87 286.686C385.875 285.113 381.141 278.822 381.141 277.879C381.141 276.935 384.612 263.724 382.719 260.579C380.826 257.434 379.563 256.49 379.563 256.49L374.83 264.353L373.252 263.41L381.141 250.199C381.141 250.199 382.088 247.683 385.875 246.11L389.346 241.707Z" fill="black"/>
<path d="M404.566 166.658C404.566 166.658 407.017 201.446 401.653 210.567V255.861L394.395 256.804C394.395 256.804 379.738 232.825 385.102 209.235C390.467 185.644 379.563 164.016 379.563 164.016L404.566 166.658Z" fill="#FBBEBE"/>
<path d="M402.757 53.1414C410.077 53.1414 416.011 47.2268 416.011 39.9308C416.011 32.6348 410.077 26.7202 402.757 26.7202C395.437 26.7202 389.504 32.6348 389.504 39.9308C389.504 47.2268 395.437 53.1414 402.757 53.1414Z" fill="#FBBEBE"/>
<path d="M416.169 74.6872L402.915 58.0167L395.342 52.9841L392.186 57.0731L383.35 59.5894C383.35 59.5894 377.67 60.8476 371.674 67.7674C365.679 74.6872 354.95 78.7762 354.95 78.7762L346.114 77.2035C346.114 77.2035 335.701 72.4855 335.701 71.2273C335.701 69.9691 326.549 79.7198 328.758 83.4943C330.967 87.2687 335.701 91.9868 338.225 94.5031C340.75 97.0194 341.696 104.254 357.159 102.052C372.621 99.8502 378.301 92.3013 378.301 92.3013C378.301 92.3013 381.141 106.77 389.346 109.601C397.55 112.432 424.373 114.319 424.373 114.319L430.053 95.4467C430.053 95.4467 436.364 87.2687 427.844 75.3163C427.844 75.3163 427.681 68.6317 426.765 64.1835C426.408 62.4533 425.938 61.0615 425.32 60.533C423.111 58.6458 411.435 55.5004 411.435 55.5004C411.435 55.5004 413.329 61.7912 414.275 62.1057C415.222 62.4203 417.431 73.1145 416.169 74.6872Z" fill="#F7D002"/>
<path d="M373.726 168.577C389.617 167.476 398.869 170.071 402.997 172.049C403.764 172.395 404.487 172.833 405.149 173.351C405.452 173.606 405.597 173.804 405.597 173.924C405.597 174.867 427.371 176.755 435.26 174.867C443.149 172.98 429.895 132.405 426.424 128.945C422.953 125.485 424.824 112.822 424.824 112.822C424.824 112.822 417.904 111.331 416.011 111.96C414.117 112.589 404.335 111.016 400.864 109.129C397.393 107.242 392.975 108.5 390.135 107.871C388.866 107.591 388.226 108.063 387.907 108.673C387.411 109.588 386.662 110.343 385.748 110.847C379.049 114.693 373.672 141.291 369.623 155.995C365.205 172.037 373.726 168.577 373.726 168.577Z" fill="#F7D002"/>
<path d="M402.915 253.03L404.177 259.95C404.177 259.95 410.804 269.386 408.911 277.249C408.911 277.249 410.488 287.629 416.168 290.46C421.849 293.291 417.115 299.896 411.751 299.582C406.386 299.267 401.337 299.896 400.706 298.323C400.075 296.751 396.288 281.338 396.288 281.338L395.252 299.374L392.097 299.689L393.133 278.822C393.133 278.822 390.608 274.104 394.079 266.241L393.203 254.17C393.203 254.17 401.968 256.175 402.915 253.03Z" fill="#2F2E41"/>
<path opacity="0.1" d="M402.997 172.049C403.764 172.395 404.487 172.833 405.149 173.351C405.316 170.379 406.282 152.403 405.124 152.693L402.997 172.049Z" fill="black"/>
<path d="M397.27 21.7391C397.27 21.7391 397.124 20.9246 391.383 23.0704C385.643 25.2161 382.202 41.0504 385.072 50.3485C386.229 54.0955 385.288 56.7972 383.752 58.6875C377.989 65.781 380.257 76.4353 388.652 80.083C388.889 80.186 389.131 80.2878 389.377 80.3883L392.965 82.5341C392.965 82.5341 388.391 76.5356 390.68 68.8624C392.668 62.3245 392.913 55.3835 391.392 48.7223C391.13 47.5987 390.832 46.4403 390.493 45.2583C387.623 35.245 389.019 36.4014 399.064 26.3881C399.064 26.3881 404.805 30.6795 409.828 32.8252C414.851 34.9709 419.156 37.1166 415.568 44.269C411.98 51.4213 403.37 57.8585 409.11 67.1565C414.851 76.4545 415.568 72.8784 414.851 76.4546L414.133 80.0307L418.439 75.7393L415.568 81.4612C415.568 81.4612 424.897 81.4612 427.767 74.3088L429.202 75.7393C429.202 75.7393 434.942 65.726 424.179 56.428C424.179 56.428 420.591 54.2823 425.614 47.1299C430.637 39.9776 426.779 24.6 420.321 21.7391C413.863 18.8781 397.27 21.7391 397.27 21.7391Z" fill="#4A4347"/>
<path d="M405.185 17.3015C408.873 17.3015 411.863 14.3214 411.863 10.6452C411.863 6.96893 408.873 3.98877 405.185 3.98877C401.496 3.98877 398.506 6.96893 398.506 10.6452C398.506 14.3214 401.496 17.3015 405.185 17.3015Z" fill="#4A4347"/>
<path d="M397.171 7.09559C397.171 5.44551 397.786 3.85429 398.896 2.63058C400.007 1.40686 401.534 0.637893 403.181 0.472823C402.961 0.451073 402.739 0.439209 402.513 0.439209C400.742 0.439209 399.044 1.1405 397.791 2.38882C396.539 3.63713 395.835 5.33021 395.835 7.0956C395.835 8.86098 396.539 10.5541 397.791 11.8024C399.044 13.0507 400.742 13.752 402.513 13.752C402.739 13.752 402.961 13.7401 403.181 13.7184C401.534 13.5533 400.007 12.7843 398.896 11.5606C397.786 10.3369 397.171 8.74568 397.171 7.09559Z" fill="#4A4347"/>
<path d="M317.548 25.0295C315.693 25.0295 313.856 25.3937 312.142 26.1013C310.428 26.8089 308.871 27.846 307.559 29.1535C306.247 30.4609 305.207 32.0131 304.497 33.7213C303.787 35.4296 303.422 37.2605 303.422 39.1095C303.422 46.8857 317.548 72.5494 317.548 72.5494C317.548 72.5494 331.673 46.8856 331.673 39.1095C331.673 37.2605 331.308 35.4296 330.598 33.7213C329.888 32.0131 328.848 30.4609 327.536 29.1535C326.224 27.846 324.667 26.8089 322.953 26.1013C321.239 25.3937 319.403 25.0295 317.548 25.0295ZM317.548 46.5015C316.081 46.5015 314.647 46.068 313.427 45.2557C312.208 44.4435 311.257 43.289 310.696 41.9383C310.135 40.5876 309.988 39.1013 310.274 37.6674C310.56 36.2335 311.266 34.9164 312.304 33.8826C313.341 32.8488 314.662 32.1448 316.101 31.8596C317.539 31.5744 319.03 31.7208 320.386 32.2802C321.741 32.8397 322.899 33.7872 323.714 35.0028C324.529 36.2184 324.964 37.6475 324.964 39.1095C324.964 41.07 324.182 42.9502 322.791 44.3364C321.401 45.7227 319.514 46.5015 317.548 46.5015Z" fill="#4267B2"/>
<path d="M203.674 287.009C207.896 287.009 211.318 283.598 211.318 279.391C211.318 275.183 207.896 271.772 203.674 271.772C199.453 271.772 196.031 275.183 196.031 279.391C196.031 283.598 199.453 287.009 203.674 287.009Z" fill="#F1F1F1"/>
<path d="M251.229 254.783C255.45 254.783 258.872 251.372 258.872 247.165C258.872 242.957 255.45 239.546 251.229 239.546C247.008 239.546 243.586 242.957 243.586 247.165C243.586 251.372 247.008 254.783 251.229 254.783Z" fill="#F1F1F1"/>
<path d="M192.42 224.777C196.641 224.777 200.063 221.366 200.063 217.158C200.063 212.951 196.641 209.54 192.42 209.54C188.199 209.54 184.776 212.951 184.776 217.158C184.776 221.366 188.199 224.777 192.42 224.777Z" fill="#F1F1F1"/>
</g>
<defs>
<clipPath id="clip0_74_447">
<rect width="481.05" height="300" fill="white"/>
</clipPath>
</defs>
</svg>
