<svg width="386" height="300" viewBox="0 0 386 300" fill="none" xmlns="http://www.w3.org/2000/svg">
<g clip-path="url(#clip0_74_596)">
<path d="M339.291 278.998C339.263 278.875 336.549 266.486 342.092 256.197C347.635 245.908 359.467 241.37 359.586 241.326L360.126 241.123L360.254 241.687C360.282 241.81 362.996 254.199 357.453 264.488C351.911 274.777 340.079 279.315 339.96 279.36L339.419 279.563L339.291 278.998ZM359.385 242.499C357.015 243.52 347.661 247.986 342.98 256.676C338.298 265.367 339.71 275.644 340.161 278.186C342.53 277.168 351.88 272.709 356.566 264.009C361.248 255.319 359.836 245.042 359.385 242.499Z" fill="#3F3D56"/>
<path d="M353.218 260.879C343.257 266.878 339.42 278.792 339.42 278.792C339.42 278.792 351.734 280.982 361.695 274.983C371.656 268.985 375.492 257.07 375.492 257.07C375.492 257.07 363.178 254.88 353.218 260.879Z" fill="#3ACC6C"/>
<path d="M136.798 224.784C135.614 224.784 134.417 224.765 133.243 224.728L133.269 223.875C134.956 223.927 136.677 223.942 138.371 223.918L138.383 224.773C137.855 224.78 137.327 224.784 136.798 224.784ZM143.52 224.586L143.47 223.733C145.159 223.633 146.87 223.493 148.555 223.316L148.644 224.166C146.946 224.344 145.223 224.486 143.52 224.586ZM128.11 224.453C126.407 224.322 124.685 224.151 122.994 223.943L123.098 223.095C124.777 223.301 126.485 223.471 128.175 223.6L128.11 224.453ZM153.743 223.513L153.615 222.668C155.293 222.413 156.984 222.117 158.639 221.788L158.806 222.626C157.137 222.958 155.434 223.256 153.743 223.513ZM117.908 223.2C116.225 222.915 114.527 222.587 112.86 222.224L113.041 221.389C114.695 221.749 116.38 222.074 118.05 222.357L117.908 223.2ZM163.824 221.507L163.619 220.677C165.266 220.27 166.923 219.819 168.542 219.338L168.785 220.158C167.153 220.642 165.484 221.096 163.824 221.507ZM107.863 221.017C106.212 220.578 104.552 220.094 102.926 219.58L103.184 218.765C104.796 219.276 106.445 219.755 108.082 220.191L107.863 221.017ZM173.678 218.581L173.398 217.774C174.997 217.217 176.604 216.616 178.178 215.986L178.494 216.78C176.91 217.414 175.289 218.02 173.678 218.581ZM98.0487 217.911C96.4458 217.322 94.8329 216.685 93.2552 216.02L93.5867 215.232C95.1523 215.892 96.7526 216.524 98.3434 217.109L98.0487 217.911ZM183.212 214.763L182.858 213.985C184.393 213.286 185.936 212.541 187.444 211.77L187.833 212.531C186.313 213.308 184.758 214.059 183.212 214.763ZM192.347 210.088L191.925 209.346C193.397 208.505 194.866 207.621 196.292 206.719L196.748 207.441C195.312 208.35 193.831 209.241 192.347 210.088ZM201.024 204.594L200.535 203.893C201.922 202.924 203.305 201.908 204.647 200.876L205.168 201.554C203.815 202.594 202.421 203.617 201.024 204.594ZM70.883 203.39C69.5048 202.388 68.1281 201.338 66.7908 200.27L67.3236 199.602C68.6507 200.662 70.017 201.704 71.3845 202.698L70.883 203.39ZM209.169 198.328L208.618 197.674C209.911 196.583 211.196 195.446 212.441 194.294L213.02 194.921C211.767 196.082 210.471 197.228 209.169 198.328ZM62.8458 196.966C61.5623 195.841 60.2871 194.671 59.0559 193.488L59.6471 192.871C60.8691 194.045 62.1345 195.207 63.4083 196.324L62.8458 196.966ZM216.714 191.342L216.106 190.742C217.297 189.534 218.475 188.283 219.607 187.026L220.242 187.598C219.101 188.865 217.914 190.125 216.714 191.342ZM55.4291 189.841C54.2515 188.602 53.0884 187.321 51.9723 186.034L52.6173 185.474C53.7249 186.751 54.8789 188.022 56.0478 189.252L55.4291 189.841ZM223.596 183.696L222.937 183.154C224.013 181.843 225.072 180.49 226.087 179.133L226.77 179.644C225.748 181.012 224.681 182.376 223.596 183.696ZM48.6929 182.074C47.6354 180.736 46.5941 179.355 45.5979 177.969L46.2908 177.47C47.2795 178.845 48.3129 180.216 49.3625 181.544L48.6929 182.074ZM229.756 175.451L229.05 174.971C230.002 173.568 230.935 172.123 231.822 170.677L232.55 171.124C231.655 172.581 230.716 174.037 229.756 175.451ZM42.6939 173.729C41.7636 172.301 40.853 170.832 39.9872 169.362L40.7227 168.928C41.582 170.387 42.4857 171.845 43.409 173.262L42.6939 173.729ZM235.142 166.673L234.395 166.26C235.215 164.775 236.011 163.25 236.763 161.727L237.528 162.106C236.771 163.64 235.968 165.177 235.142 166.673H235.142ZM239.702 157.434L238.92 157.09C239.6 155.535 240.254 153.942 240.862 152.356L241.659 152.663C241.046 154.261 240.388 155.866 239.702 157.434H239.702ZM33.1068 155.589C32.4523 154.017 31.8254 152.408 31.2438 150.807L32.0464 150.515C32.6234 152.104 33.2455 153.7 33.8948 155.261L33.1068 155.589ZM243.395 147.805L242.584 147.536C243.117 145.929 243.62 144.286 244.078 142.653L244.9 142.885C244.438 144.53 243.931 146.186 243.395 147.805ZM29.599 145.932C29.091 144.303 28.6136 142.639 28.1802 140.986L29.0061 140.769C29.4362 142.41 29.91 144.061 30.4141 145.677L29.599 145.932ZM246.178 137.9L245.346 137.706C245.728 136.059 246.077 134.377 246.385 132.707L247.224 132.862C246.915 134.545 246.563 136.239 246.178 137.9ZM26.9911 135.979C26.6351 134.31 26.3128 132.61 26.0334 130.924L26.8756 130.784C27.1531 132.457 27.4729 134.144 27.8262 135.801L26.9911 135.979ZM248.038 127.781L247.192 127.665C247.422 125.991 247.616 124.285 247.769 122.592L248.619 122.669C248.465 124.375 248.269 126.095 248.038 127.781ZM25.3084 125.83C25.107 124.138 24.9417 122.415 24.8168 120.709L25.6686 120.646C25.7922 122.34 25.9565 124.05 26.1564 125.729L25.3084 125.83ZM248.967 117.536L248.114 117.497C248.19 115.804 248.228 114.086 248.228 112.392H249.082C249.082 114.099 249.044 115.829 248.967 117.536ZM24.5581 115.569C24.5289 114.521 24.5141 113.452 24.5139 112.392C24.5139 111.734 24.5195 111.078 24.5308 110.423L25.3847 110.438C25.3734 111.088 25.3678 111.739 25.3678 112.392C25.368 113.444 25.3828 114.505 25.4116 115.546L24.5581 115.569ZM25.5873 105.335L24.7351 105.282C24.8416 103.574 24.9888 101.849 25.172 100.155L26.0209 100.247C25.8389 101.928 25.6932 103.64 25.5873 105.335H25.5873ZM247.677 100.121C247.507 98.4358 247.272 97.6143 247.024 95.9366L247.869 95.8118C248.118 97.5022 248.332 98.7926 248.504 100.49L247.677 100.121ZM26.6857 95.1844L25.8418 95.0538C26.1035 93.363 26.4074 91.6588 26.7453 89.988L27.5821 90.1575C27.2469 91.8155 26.9453 93.5067 26.6857 95.1844H26.6857ZM246.163 90.9043C245.837 89.237 245.47 87.5587 245.07 85.9161L245.9 85.7141C246.302 87.3692 246.672 89.0605 247.001 90.7403L246.163 90.9043ZM28.7082 85.1772L27.88 84.9694C28.2946 83.3141 28.7539 81.645 29.245 80.0082L30.0626 80.254C29.5755 81.8783 29.1198 83.5346 28.7082 85.1772ZM243.749 80.9835C243.273 79.3561 242.753 77.7191 242.203 76.1174L243.01 75.8395C243.565 77.4535 244.089 79.1034 244.569 80.7431L243.749 80.9835ZM31.6476 75.3852L30.8421 75.1019C31.4095 73.4862 32.0222 71.8627 32.663 70.2767L33.4548 70.5972C32.8188 72.1709 32.2107 73.7821 31.6476 75.3852ZM240.434 71.3277C239.811 69.7548 239.144 68.1762 238.451 66.6357L239.229 66.2847C239.928 67.8372 240.6 69.4278 241.227 71.0126L240.434 71.3277ZM35.48 65.8993L34.7041 65.5425C35.4173 63.9879 36.1763 62.429 36.9601 60.9091L37.7189 61.3009C36.9409 62.8094 36.1878 64.3564 35.48 65.8993ZM236.255 62.038C235.49 60.5291 234.681 59.0171 233.848 57.5446L234.591 57.1235C235.43 58.6075 236.246 60.131 237.016 61.6515L236.255 62.038ZM40.1665 56.8117L39.4265 56.3852C40.2783 54.9047 41.1765 53.4228 42.0965 51.9809L42.8161 52.4408C41.9032 53.8719 41.0116 55.3425 40.1665 56.8117ZM231.238 53.1643C230.336 51.7266 229.391 50.2943 228.43 48.9071L229.131 48.4201C230.1 49.8179 231.052 51.261 231.961 52.7098L231.238 53.1643ZM45.6625 48.197L44.9645 47.7046C45.9489 46.3071 46.9781 44.9143 48.0242 43.5646L48.6988 44.0884C47.6608 45.428 46.6391 46.8102 45.6625 48.197ZM225.43 44.7816C224.401 43.4326 223.329 42.0915 222.244 40.7957L222.899 40.2467C223.992 41.5525 225.072 42.9036 226.109 44.2628L225.43 44.7816ZM51.9185 40.124L51.2685 39.5698C52.3732 38.271 53.5245 36.9783 54.6905 35.7276L55.3146 36.3106C54.1576 37.552 53.015 38.835 51.9185 40.124ZM218.88 36.9581C217.733 35.7084 216.543 34.4698 215.344 33.277L215.946 32.6707C217.155 33.8728 218.353 35.1206 219.509 36.3797L218.88 36.9581ZM58.8796 32.6573L58.2825 32.0463C59.5035 30.8507 60.767 29.6686 62.0376 28.533L62.6063 29.1707C61.3453 30.2975 60.0914 31.4706 58.8796 32.6573V32.6573ZM211.645 29.76C210.388 28.6188 209.09 27.4933 207.787 26.4147L208.332 25.7561C209.644 26.8429 210.952 27.977 212.219 29.1269L211.645 29.76ZM66.4869 25.8575L65.9478 25.1948C67.2684 24.1183 68.6332 23.0566 70.0045 22.0392L70.5132 22.7257C69.1521 23.7356 67.7975 24.7892 66.4869 25.8575H66.4869ZM74.6764 19.7818L74.1998 19.0728C75.6132 18.1209 77.0683 17.1888 78.5249 16.3017L78.9685 17.0321C77.5232 17.9122 76.0792 18.8374 74.6764 19.7818H74.6764ZM83.3807 14.4822L82.9708 13.7322C84.4661 12.9132 85.9994 12.1186 87.5278 11.3701L87.9031 12.138C86.3863 12.8807 84.8647 13.6692 83.3807 14.4822ZM186.43 12.5019C184.911 11.7443 183.355 11.0123 181.804 10.3264L182.15 9.54473C183.712 10.2358 185.28 10.9735 186.811 11.737L186.43 12.5019ZM92.5264 10.0044L92.187 9.22025C93.7497 8.5423 95.3482 7.8921 96.938 7.2876L97.2411 8.08679C95.6634 8.6865 94.0772 9.33169 92.5264 10.0044ZM177.082 8.36577C175.501 7.75211 173.883 7.16658 172.272 6.62571L172.544 5.81526C174.167 6.3605 175.797 6.9504 177.39 7.56909L177.082 8.36577ZM102.051 6.38429L101.785 5.57217C103.407 5.03966 105.063 4.53823 106.705 4.0823L106.934 4.90569C105.304 5.35828 103.661 5.85576 102.051 6.38429H102.051ZM167.399 5.11352C165.771 4.64883 164.11 4.21605 162.462 3.82731L162.658 2.99558C164.318 3.38724 165.992 3.82334 167.633 4.29138L167.399 5.11352ZM111.88 3.65391L111.69 2.82071C113.353 2.44031 115.048 2.09372 116.726 1.79074L116.878 2.63166C115.212 2.93255 113.531 3.27644 111.88 3.65391ZM157.471 2.77063C155.808 2.45824 154.115 2.18032 152.437 1.94453L152.556 1.09818C154.246 1.33585 155.953 1.61588 157.629 1.93055L157.471 2.77063ZM121.918 1.84061L121.805 0.993431C123.495 0.767656 125.214 0.577771 126.914 0.429618L126.988 1.28097C125.301 1.42829 123.596 1.61649 121.918 1.84061ZM147.37 1.35025C145.688 1.19166 143.976 1.06938 142.282 0.98738L142.323 0.133523C144.031 0.216364 145.755 0.339475 147.45 0.499332L147.37 1.35025ZM132.08 0.953159L132.044 0.0993213C133.613 0.0338006 135.213 0.000418799 136.798 0L137.185 0.000622735L137.182 0.855315L136.798 0.854692C135.225 0.855089 133.637 0.888262 132.08 0.953159Z" fill="#3F3D56"/>
<path d="M385.096 278.755H72.1522V279.609H385.096V278.755Z" fill="#3F3D56"/>
<path d="M255.312 135.052L259.582 201.291C259.582 201.291 269.828 227.359 269.401 252.145C269.401 252.145 265.559 261.974 268.547 263.683C271.536 265.393 273.244 266.675 271.536 267.957C269.828 269.239 268.547 272.23 269.828 273.085C271.109 273.94 271.536 275.222 271.109 275.222H258.301C258.301 275.222 260.862 268.811 257.02 267.102C253.178 265.393 255.312 261.119 255.312 261.119L226.708 177.359L204.08 254.282C204.08 254.282 207.922 256.846 204.934 258.128C201.945 259.41 200.665 256.846 201.945 259.41C203.226 261.974 201.518 263.256 201.518 263.683C201.518 264.111 188.71 262.401 188.71 262.401C188.71 262.401 195.114 256.846 192.126 255.564C189.137 254.282 187.856 253 188.71 252.145C189.564 251.29 192.98 243.171 192.98 243.171C192.98 243.171 194.687 212.402 195.114 211.12C195.541 209.838 195.114 203.855 195.114 200.863C195.114 197.872 194.687 185.906 195.968 182.915C197.249 179.923 198.53 143.172 205.361 138.898C212.192 134.625 255.312 135.052 255.312 135.052Z" fill="#4F4F4F"/>
<path d="M201.091 261.546C201.091 261.546 209.63 279.068 203.653 281.204C197.676 283.341 189.991 281.632 188.283 284.196C186.576 286.76 167.79 289.751 167.364 283.341C166.937 276.931 187.856 264.965 187.856 264.965L190.582 260.573L201.091 261.546Z" fill="#1D1D1D"/>
<path d="M270.255 274.367C270.255 274.367 278.794 291.888 272.817 294.025C266.84 296.162 259.155 294.452 257.447 297.016C255.739 299.58 236.954 302.572 236.527 296.162C236.1 289.752 257.02 277.786 257.02 277.786L259.745 273.394L270.255 274.367Z" fill="#1D1D1D"/>
<path d="M230.763 54.4976C238.545 54.4976 244.852 48.1837 244.852 40.3951C244.852 32.6066 238.545 26.2927 230.763 26.2927C222.982 26.2927 216.675 32.6066 216.675 40.3951C216.675 48.1837 222.982 54.4976 230.763 54.4976Z" fill="#A0616A"/>
<path d="M240.37 47.8735L238.662 60.2666L225.854 70.0955L222.438 65.3947V49.1556L240.37 47.8735Z" fill="#A0616A"/>
<path d="M220.304 63.6854C220.304 63.6854 233.539 64.9674 240.37 60.2666L254.031 141.035C254.031 141.035 205.788 144.881 203.653 142.317V117.104L212.192 76.0784L220.304 63.6854Z" fill="#F4FAFF"/>
<path d="M239.194 56.405L243.785 60.2666C243.785 60.2666 262.57 63.258 261.289 68.3862L256.166 129.069L257.874 149.582C257.874 149.582 243.358 145.736 232.258 149.582C221.157 153.428 229.976 66.9318 229.976 66.9318C229.976 66.9318 240.153 57.6716 239.194 56.405Z" fill="#01147F"/>
<path d="M222.438 61.0825C222.438 61.0825 208.776 70.9502 207.069 77.3604C205.361 83.7705 199.811 151.291 199.811 151.291C199.811 151.291 202.372 150.009 203.653 152.146C204.934 154.283 224.573 64.4626 222.438 61.0825Z" fill="#01147F"/>
<path d="M216.681 39.7806C216.681 39.7806 215.156 37.4906 215.743 35.0245C216.093 33.6243 216.232 32.1794 216.153 30.738C216.153 30.738 217.385 26.7452 218.617 24.5139C219.849 22.2826 219.262 21.3431 223.134 20.6385C227.006 19.9339 225.422 14.8841 235.629 20.3449C235.974 20.8262 236.453 21.1946 237.006 21.4036C237.559 21.6126 238.162 21.6528 238.738 21.5193C240.85 21.1082 241.613 24.0441 241.613 24.0441C241.613 24.0441 243.021 23.2221 243.549 24.3964C244.076 25.5708 247.841 23.6916 247.841 31.6186C247.841 39.5456 243.557 46.6264 243.557 46.6264C243.557 46.6264 243.871 33.2923 236.89 31.9418C229.91 30.5912 222.401 26.6571 220.582 31.7069C219.601 34.5411 218.291 37.2507 216.681 39.7806Z" fill="#2F2E41"/>
<path d="M243.71 42.9513C244.471 42.9513 245.087 42.1285 245.087 41.1135C245.087 40.0985 244.471 39.2756 243.71 39.2756C242.95 39.2756 242.333 40.0985 242.333 41.1135C242.333 42.1285 242.95 42.9513 243.71 42.9513Z" fill="#A0616A"/>
<path d="M185.846 173.267C182.467 171.234 178.394 171.389 176.845 171.544C177.435 172.986 179.205 176.662 182.583 178.696C185.969 180.735 190.037 180.575 191.584 180.421C190.994 178.98 189.224 175.303 185.846 173.267Z" fill="#F2F2F2"/>
<path d="M201.72 213.619H180.606C179.346 213.619 178.138 214.12 177.247 215.012C176.356 215.904 175.855 217.114 175.855 218.375C175.855 219.636 176.356 220.846 177.247 221.738C178.138 222.629 179.346 223.13 180.606 223.13H201.72C202.98 223.129 204.187 222.628 205.077 221.736C205.967 220.844 206.467 219.635 206.467 218.375C206.467 217.114 205.967 215.905 205.077 215.014C204.187 214.122 202.98 213.62 201.72 213.619Z" fill="#F2F2F2"/>
<path d="M297.334 163.424H178.952C177.575 163.424 176.211 163.695 174.939 164.223C173.666 164.75 172.51 165.524 171.537 166.498C170.563 167.473 169.79 168.63 169.263 169.904C168.736 171.177 168.465 172.542 168.465 173.921V231.654C168.465 234.438 169.57 237.108 171.537 239.077C173.503 241.045 176.17 242.151 178.952 242.151H297.334C298.711 242.151 300.075 241.879 301.347 241.352C302.62 240.824 303.776 240.051 304.749 239.077C305.723 238.102 306.496 236.945 307.023 235.671C307.55 234.398 307.821 233.033 307.821 231.654V173.921C307.821 172.542 307.55 171.177 307.023 169.904C306.496 168.63 305.723 167.473 304.749 166.498C303.776 165.524 302.62 164.75 301.347 164.223C300.075 163.695 298.711 163.424 297.334 163.424ZM176.023 170.584C176.256 170.542 181.8 169.598 186.39 172.362C190.98 175.126 192.743 180.472 192.816 180.698L193.002 181.274L192.406 181.38C191.556 181.512 190.697 181.576 189.837 181.568C187.752 181.568 184.732 181.223 182.038 179.601C177.449 176.837 175.685 171.492 175.613 171.266L175.427 170.69L176.023 170.584ZM201.72 224.186H180.606C179.066 224.186 177.589 223.574 176.5 222.484C175.411 221.394 174.799 219.916 174.799 218.374C174.799 216.833 175.411 215.355 176.5 214.265C177.589 213.175 179.066 212.562 180.606 212.562H201.72C203.26 212.562 204.737 213.175 205.826 214.265C206.915 215.355 207.527 216.833 207.527 218.374C207.527 219.916 206.915 221.394 205.826 222.484C204.737 223.574 203.26 224.186 201.72 224.186ZM297.792 223.13C297.787 224.81 297.118 226.42 295.931 227.608C294.744 228.796 293.136 229.465 291.457 229.47H275.621C273.943 229.465 272.334 228.796 271.148 227.608C269.961 226.42 269.292 224.81 269.287 223.13V213.619C269.292 211.939 269.961 210.329 271.148 209.141C272.334 207.953 273.943 207.283 275.621 207.279H291.457C293.136 207.283 294.744 207.953 295.931 209.141C297.118 210.329 297.787 211.939 297.792 213.619L297.792 223.13Z" fill="#4267B2"/>
<path d="M280.636 221.28H273.774C273.284 221.28 272.814 221.475 272.467 221.822C272.121 222.169 271.926 222.639 271.926 223.13C271.926 223.62 272.121 224.091 272.467 224.437C272.814 224.784 273.284 224.979 273.774 224.979H280.636C281.126 224.979 281.596 224.784 281.942 224.437C282.289 224.091 282.484 223.62 282.484 223.13C282.484 222.639 282.289 222.169 281.942 221.822C281.596 221.475 281.126 221.28 280.636 221.28ZM280.636 223.922H273.774C273.67 223.923 273.566 223.902 273.47 223.863C273.374 223.823 273.286 223.764 273.213 223.691C273.139 223.617 273.08 223.53 273.041 223.433C273.001 223.337 272.98 223.234 272.98 223.13C272.98 223.025 273.001 222.922 273.041 222.826C273.08 222.73 273.139 222.642 273.213 222.569C273.286 222.495 273.374 222.437 273.47 222.397C273.566 222.357 273.67 222.337 273.774 222.337H280.636C280.74 222.337 280.843 222.357 280.94 222.397C281.036 222.437 281.123 222.495 281.197 222.569C281.271 222.642 281.329 222.73 281.369 222.826C281.409 222.922 281.43 223.025 281.43 223.13C281.43 223.234 281.409 223.337 281.369 223.433C281.329 223.53 281.271 223.617 281.197 223.691C281.123 223.764 281.036 223.823 280.94 223.863C280.843 223.902 280.74 223.923 280.636 223.922Z" fill="#F2F2F2"/>
<path d="M293.305 221.28H286.442C286.2 221.28 285.959 221.327 285.735 221.42C285.51 221.513 285.306 221.649 285.134 221.821C284.962 221.993 284.826 222.197 284.733 222.421C284.64 222.646 284.592 222.887 284.592 223.13C284.592 223.373 284.64 223.614 284.733 223.838C284.826 224.063 284.962 224.267 285.134 224.438C285.306 224.61 285.51 224.746 285.735 224.839C285.959 224.932 286.2 224.98 286.442 224.979H293.305C293.795 224.979 294.265 224.784 294.611 224.437C294.958 224.091 295.152 223.62 295.152 223.13C295.152 222.639 294.958 222.169 294.611 221.822C294.265 221.475 293.795 221.28 293.305 221.28ZM293.305 223.922H286.442C286.338 223.923 286.235 223.902 286.139 223.863C286.043 223.823 285.955 223.764 285.881 223.691C285.808 223.617 285.749 223.53 285.709 223.433C285.669 223.337 285.649 223.234 285.649 223.13C285.649 223.025 285.669 222.922 285.709 222.826C285.749 222.73 285.808 222.642 285.881 222.569C285.955 222.495 286.043 222.437 286.139 222.397C286.235 222.357 286.338 222.337 286.442 222.337H293.305C293.514 222.338 293.715 222.421 293.863 222.57C294.012 222.719 294.095 222.92 294.095 223.13C294.095 223.34 294.012 223.541 293.863 223.69C293.715 223.838 293.514 223.922 293.305 223.922Z" fill="#F2F2F2"/>
<path d="M280.636 216.525H273.774C273.284 216.525 272.814 216.72 272.467 217.067C272.121 217.413 271.926 217.884 271.926 218.374C271.926 218.865 272.121 219.335 272.467 219.682C272.814 220.029 273.284 220.224 273.774 220.224H280.636C280.879 220.224 281.119 220.177 281.344 220.084C281.568 219.991 281.772 219.855 281.944 219.683C282.116 219.511 282.252 219.307 282.345 219.083C282.438 218.858 282.486 218.617 282.486 218.374C282.486 218.131 282.438 217.891 282.345 217.666C282.252 217.441 282.116 217.237 281.944 217.066C281.772 216.894 281.568 216.758 281.344 216.665C281.119 216.572 280.879 216.525 280.636 216.525ZM280.636 219.167H273.774C273.564 219.167 273.362 219.083 273.214 218.935C273.065 218.786 272.982 218.585 272.982 218.374C272.982 218.164 273.065 217.963 273.214 217.814C273.362 217.665 273.564 217.582 273.774 217.582H280.636C280.846 217.582 281.047 217.665 281.196 217.814C281.344 217.963 281.428 218.164 281.428 218.374C281.428 218.585 281.344 218.786 281.196 218.935C281.047 219.083 280.846 219.167 280.636 219.167Z" fill="#F2F2F2"/>
<path d="M293.305 216.525H286.442C286.2 216.525 285.959 216.572 285.735 216.665C285.51 216.758 285.306 216.894 285.134 217.066C284.962 217.237 284.826 217.441 284.733 217.666C284.64 217.891 284.592 218.131 284.592 218.374C284.592 218.617 284.64 218.858 284.733 219.083C284.826 219.307 284.962 219.511 285.134 219.683C285.306 219.855 285.51 219.991 285.735 220.084C285.959 220.177 286.2 220.224 286.442 220.224H293.305C293.795 220.224 294.265 220.029 294.611 219.682C294.958 219.335 295.152 218.865 295.152 218.374C295.152 217.884 294.958 217.413 294.611 217.067C294.265 216.72 293.795 216.525 293.305 216.525ZM293.305 219.167H286.442C286.233 219.167 286.031 219.083 285.883 218.935C285.734 218.786 285.651 218.585 285.651 218.374C285.651 218.164 285.734 217.963 285.883 217.814C286.031 217.665 286.233 217.582 286.442 217.582H293.305C293.515 217.582 293.716 217.665 293.865 217.814C294.013 217.963 294.097 218.164 294.097 218.374C294.097 218.585 294.013 218.786 293.865 218.935C293.716 219.083 293.515 219.167 293.305 219.167Z" fill="#F2F2F2"/>
<path d="M280.636 211.77H273.774C273.284 211.77 272.814 211.965 272.467 212.311C272.121 212.658 271.926 213.129 271.926 213.619C271.926 214.11 272.121 214.58 272.467 214.927C272.814 215.274 273.284 215.469 273.774 215.469H280.636C281.126 215.469 281.596 215.274 281.942 214.927C282.289 214.58 282.484 214.11 282.484 213.619C282.484 213.129 282.289 212.658 281.942 212.311C281.596 211.965 281.126 211.77 280.636 211.77ZM280.636 214.412H273.774C273.564 214.412 273.362 214.328 273.214 214.18C273.065 214.031 272.982 213.829 272.982 213.619C272.982 213.409 273.065 213.207 273.214 213.059C273.362 212.91 273.564 212.827 273.774 212.827H280.636C280.846 212.827 281.047 212.91 281.196 213.059C281.344 213.207 281.428 213.409 281.428 213.619C281.428 213.829 281.344 214.031 281.196 214.18C281.047 214.328 280.846 214.412 280.636 214.412Z" fill="#F2F2F2"/>
<path d="M293.305 211.77H286.442C286.2 211.769 285.959 211.817 285.735 211.91C285.51 212.003 285.306 212.139 285.134 212.31C284.962 212.482 284.826 212.686 284.733 212.911C284.64 213.135 284.592 213.376 284.592 213.619C284.592 213.862 284.64 214.103 284.733 214.328C284.826 214.552 284.962 214.756 285.134 214.928C285.306 215.1 285.51 215.236 285.735 215.329C285.959 215.421 286.2 215.469 286.442 215.469H293.305C293.794 215.468 294.263 215.273 294.609 214.926C294.955 214.579 295.149 214.109 295.149 213.619C295.149 213.129 294.955 212.659 294.609 212.312C294.263 211.966 293.794 211.771 293.305 211.77ZM293.305 214.412H286.442C286.232 214.412 286.031 214.328 285.883 214.18C285.734 214.031 285.651 213.829 285.651 213.619C285.651 213.409 285.734 213.207 285.883 213.059C286.031 212.91 286.232 212.827 286.442 212.827H293.305C293.515 212.827 293.716 212.91 293.865 213.059C294.013 213.207 294.097 213.409 294.097 213.619C294.097 213.829 294.013 214.031 293.865 214.18C293.716 214.328 293.515 214.412 293.305 214.412Z" fill="#F2F2F2"/>
<path d="M260.009 150.436L256.948 160.433C256.948 160.433 256.166 179.069 245.92 176.505C235.673 173.941 248.908 152.146 248.908 152.146L251.897 147.445L260.009 150.436Z" fill="#A0616A"/>
<path d="M201.945 150.436L198.885 160.433C198.885 160.433 198.103 179.069 187.856 176.505C177.61 173.941 190.845 152.146 190.845 152.146L193.834 147.445L201.945 150.436Z" fill="#A0616A"/>
<path d="M257.874 65.3947C257.874 65.3947 264.705 63.6853 266.84 75.2237C268.974 86.762 271.536 119.668 271.536 119.668L261.289 154.283C261.289 154.283 251.043 148.727 248.908 149.582L256.971 119.531L250.189 88.8988C250.189 88.8988 256.166 65.3947 257.874 65.3947Z" fill="#01147F"/>
<path opacity="0.15" d="M247.942 89.4834L256.908 119.398L247.942 149.739L253.065 119.398L247.942 89.4834Z" fill="black"/>
<path d="M207.068 88.8987L191.699 149.582C191.699 149.582 199.806 152.26 202.795 154.397L207.068 88.8987Z" fill="#01147F"/>
<path d="M45.8368 241.401C69.4158 241.401 88.5304 222.268 88.5304 198.666C88.5304 175.065 69.4158 155.932 45.8368 155.932C22.2578 155.932 3.14319 175.065 3.14319 198.666C3.14319 222.268 22.2578 241.401 45.8368 241.401Z" fill="#3F3D56"/>
<path opacity="0.1" d="M45.8368 235.418C66.1147 235.418 82.5533 218.964 82.5533 198.667C82.5533 178.369 66.1147 161.915 45.8368 161.915C25.5588 161.915 9.12024 178.369 9.12024 198.667C9.12024 218.964 25.5588 235.418 45.8368 235.418Z" fill="black"/>
<path d="M44.0775 220.353V215.004C41.3761 214.952 38.5815 213.998 36.9514 212.674L38.0691 209.126C40.0063 210.579 42.3555 211.376 44.7761 211.403C48.083 211.403 50.3186 209.231 50.3186 206.213C50.3186 203.3 48.5021 201.499 45.0555 199.91C40.3048 197.792 37.3705 195.355 37.3705 190.748C37.3705 186.352 40.1185 183.015 44.4036 182.221V176.872H47.2912V182.009C49.4444 182.039 51.5448 182.682 53.3461 183.863L52.1816 187.358C50.4539 186.175 48.4067 185.546 46.3131 185.557C42.7269 185.557 41.3761 187.994 41.3761 190.112C41.3761 192.866 43.0994 194.243 47.1516 196.15C51.9487 198.374 54.3708 201.128 54.3708 205.842C54.3708 210.026 51.8091 213.945 47.0117 214.845V220.353H44.0775Z" fill="#4267B2"/>
<path d="M90.9374 285.592C60.7916 290.092 30.1458 290.092 0 285.592V275.336C30.1778 279.381 60.7596 279.381 90.9374 275.336V285.592Z" fill="#3F3D56"/>
<path d="M90.9374 269.78C60.7916 274.28 30.1458 274.28 0 269.78V259.524C30.1778 263.569 60.7596 263.569 90.9374 259.524V269.78Z" fill="#3F3D56"/>
<path d="M90.9374 253.968C60.7916 258.469 30.1458 258.469 0 253.968V243.712C30.1778 247.758 60.7596 247.758 90.9374 243.712V253.968Z" fill="#3F3D56"/>
</g>
<defs>
<clipPath id="clip0_74_596">
<rect width="385.096" height="300" fill="white"/>
</clipPath>
</defs>
</svg>
