<svg width="117" height="32" viewBox="0 0 117 32" fill="none" xmlns="http://www.w3.org/2000/svg">
<path d="M20.552 26H14.336L16.912 13.904L10.276 26H6.468L5.208 13.484L2.52 26H0L3.78 8.22H10.92L11.788 18.244L17.164 8.22H24.36L20.552 26ZM30.029 26H24.345L26.893 13.96H32.633L30.029 26ZM33.361 10.292C33.361 10.7213 33.2677 11.0947 33.081 11.412C32.913 11.7293 32.6797 12 32.381 12.224C32.101 12.448 31.7743 12.616 31.401 12.728C31.0277 12.84 30.645 12.896 30.253 12.896C29.5063 12.896 28.881 12.7187 28.377 12.364C27.873 12.0093 27.621 11.4493 27.621 10.684C27.621 10.2733 27.705 9.90933 27.873 9.592C28.041 9.256 28.265 8.98533 28.545 8.78C28.8437 8.556 29.1797 8.388 29.553 8.276C29.945 8.164 30.3463 8.108 30.757 8.108C31.485 8.108 32.101 8.28533 32.605 8.64C33.109 8.99467 33.361 9.54533 33.361 10.292ZM39.2601 26H33.5481L37.5241 7.184H43.2641L39.2601 26ZM49.1353 20.372C49.0606 20.7827 49.0046 21.1747 48.9673 21.548C48.9486 21.9213 48.9393 22.2573 48.9393 22.556C48.9393 22.724 48.9486 22.9107 48.9673 23.116C48.9859 23.3213 49.0233 23.5173 49.0793 23.704C49.1539 23.872 49.2473 24.0213 49.3593 24.152C49.4899 24.264 49.6673 24.32 49.8913 24.32C50.0593 24.32 50.2459 24.264 50.4513 24.152C50.6753 24.04 50.8899 23.8813 51.0953 23.676C51.3193 23.4707 51.5246 23.2187 51.7113 22.92C51.9166 22.6213 52.0753 22.2853 52.1873 21.912H56.7793L56.0513 24.908C55.6779 25.1507 55.2486 25.356 54.7633 25.524C54.2779 25.692 53.7646 25.832 53.2233 25.944C52.6819 26.0373 52.1313 26.1027 51.5713 26.14C51.0113 26.196 50.4793 26.224 49.9753 26.224C49.0419 26.224 48.1739 26.14 47.3713 25.972C46.5686 25.804 45.8686 25.5147 45.2713 25.104C44.6739 24.6933 44.1979 24.152 43.8433 23.48C43.5073 22.7893 43.3393 21.94 43.3393 20.932C43.3393 20.0173 43.4793 19.1213 43.7593 18.244C44.0579 17.3667 44.5433 16.592 45.2153 15.92C45.9059 15.2293 46.8206 14.6787 47.9593 14.268C49.1166 13.8573 50.5539 13.652 52.2713 13.652C54.1379 13.652 55.5379 13.9413 56.4713 14.52C57.4233 15.0987 57.8993 16.004 57.8993 17.236C57.8993 17.74 57.8246 18.2907 57.6753 18.888C57.5259 19.4667 57.3019 19.9613 57.0033 20.372H49.1353ZM52.8593 17.04C52.8593 16.4613 52.7659 16.0693 52.5793 15.864C52.3926 15.6587 52.1686 15.556 51.9073 15.556C51.6086 15.556 51.3286 15.6587 51.0673 15.864C50.8246 16.0507 50.6006 16.312 50.3953 16.648C50.1899 16.9653 50.0033 17.3387 49.8353 17.768C49.6673 18.1787 49.5273 18.6173 49.4153 19.084H52.6073C52.6446 18.86 52.6819 18.6267 52.7193 18.384C52.7566 18.1787 52.7846 17.9547 52.8033 17.712C52.8406 17.4693 52.8593 17.2453 52.8593 17.04ZM67.9398 17.488C67.9584 17.3947 67.9771 17.3013 67.9958 17.208C68.0144 17.1147 68.0238 17.012 68.0238 16.9C68.0238 16.564 67.9584 16.256 67.8278 15.976C67.7158 15.6773 67.4824 15.528 67.1278 15.528C66.8104 15.528 66.4931 15.668 66.1758 15.948C65.8584 16.2093 65.6998 16.564 65.6998 17.012C65.6998 17.3107 65.7744 17.5533 65.9238 17.74C66.0918 17.908 66.3064 18.048 66.5678 18.16C66.8291 18.272 67.1184 18.3653 67.4358 18.44C67.7718 18.5147 68.0984 18.5893 68.4158 18.664C68.8638 18.776 69.2838 18.916 69.6758 19.084C70.0864 19.2333 70.4504 19.4387 70.7678 19.7C71.0851 19.9613 71.3371 20.288 71.5238 20.68C71.7104 21.0533 71.8038 21.52 71.8038 22.08C71.8038 22.864 71.6171 23.5267 71.2438 24.068C70.8891 24.5907 70.3851 25.02 69.7318 25.356C69.0971 25.6733 68.3411 25.8973 67.4638 26.028C66.6051 26.1587 65.6811 26.224 64.6918 26.224C63.1798 26.224 61.9291 26.112 60.9398 25.888C59.9504 25.664 59.2597 25.4493 58.8677 25.244L59.4558 22.444H63.2358C63.2171 22.5373 63.2078 22.6307 63.2078 22.724C63.2078 22.7987 63.2078 22.8827 63.2078 22.976C63.2078 23.4053 63.3011 23.7507 63.4878 24.012C63.6931 24.2547 64.0384 24.376 64.5238 24.376C65.0651 24.376 65.4478 24.2267 65.6718 23.928C65.9144 23.6107 66.0358 23.3213 66.0358 23.06C66.0358 22.7987 65.9331 22.5747 65.7278 22.388C65.5411 22.1827 65.2984 22.0147 64.9998 21.884C64.7011 21.7347 64.3651 21.6133 63.9918 21.52C63.6371 21.408 63.2918 21.3053 62.9558 21.212C62.7131 21.156 62.4331 21.0627 62.1158 20.932C61.8171 20.8013 61.5278 20.6147 61.2478 20.372C60.9678 20.1293 60.7344 19.8213 60.5478 19.448C60.3611 19.056 60.2677 18.5707 60.2677 17.992C60.2677 17.1707 60.4638 16.4893 60.8558 15.948C61.2664 15.388 61.7891 14.94 62.4238 14.604C63.0771 14.268 63.8051 14.0253 64.6078 13.876C65.4291 13.7267 66.2504 13.652 67.0718 13.652C68.0984 13.652 69.0691 13.7453 69.9838 13.932C70.8984 14.1187 71.6451 14.3613 72.2238 14.66L71.5798 17.488H67.9398ZM79.6723 23.536C79.6723 23.9653 79.5789 24.348 79.3923 24.684C79.2243 25.02 78.9909 25.3 78.6923 25.524C78.4123 25.748 78.0856 25.916 77.7123 26.028C77.3389 26.1587 76.9469 26.224 76.5363 26.224C75.8269 26.224 75.2203 26.0373 74.7163 25.664C74.2309 25.272 73.9883 24.6653 73.9883 23.844C73.9883 23.4147 74.0723 23.032 74.2403 22.696C74.4083 22.36 74.6323 22.08 74.9123 21.856C75.1923 21.632 75.5096 21.464 75.8643 21.352C76.2376 21.2213 76.6203 21.156 77.0123 21.156C77.7776 21.156 78.4123 21.352 78.9163 21.744C79.4203 22.1173 79.6723 22.7147 79.6723 23.536ZM90.1759 15.752C90.5679 15.3787 91.0065 15.0333 91.4919 14.716C91.9212 14.4547 92.4252 14.212 93.0039 13.988C93.5825 13.764 94.2265 13.652 94.9359 13.652C95.9065 13.652 96.7092 13.904 97.3439 14.408C97.9785 14.8933 98.2959 15.5653 98.2959 16.424C98.2959 16.6667 98.2679 16.9653 98.2119 17.32C98.1559 17.656 98.0905 18.0107 98.0159 18.384C97.9412 18.7573 97.8572 19.14 97.7639 19.532C97.6892 19.9053 97.6239 20.2413 97.5679 20.54L96.3919 26H90.7079L92.2479 18.692C92.2852 18.4493 92.3319 18.2067 92.3879 17.964C92.4439 17.7027 92.4719 17.4693 92.4719 17.264C92.4719 16.984 92.3972 16.76 92.2479 16.592C92.1172 16.4053 91.9119 16.312 91.6319 16.312C91.2959 16.312 90.9692 16.4333 90.6519 16.676C90.3532 16.9187 90.1199 17.124 89.9519 17.292L88.1039 26H82.3919L84.9399 13.96H89.5039L90.0079 15.752H90.1759ZM111.502 13.96H116.038L113.742 24.852C113.574 25.692 113.294 26.4667 112.902 27.176C112.51 27.8853 111.959 28.5013 111.25 29.024C110.559 29.5467 109.682 29.9573 108.618 30.256C107.573 30.5547 106.294 30.704 104.782 30.704C104.502 30.704 104.166 30.6947 103.774 30.676C103.382 30.676 102.981 30.6667 102.57 30.648C102.159 30.648 101.767 30.6387 101.394 30.62C101.021 30.6013 100.722 30.5827 100.498 30.564L101.03 28.548C101.627 28.6413 102.234 28.688 102.85 28.688C103.485 28.7067 104.026 28.716 104.474 28.716C105.034 28.716 105.501 28.66 105.874 28.548C106.266 28.4547 106.583 28.296 106.826 28.072C107.087 27.848 107.293 27.5493 107.442 27.176C107.61 26.8027 107.741 26.3453 107.834 25.804L108.17 23.984H107.974C107.862 24.152 107.694 24.3573 107.47 24.6C107.265 24.824 106.994 25.048 106.658 25.272C106.322 25.4773 105.921 25.6547 105.454 25.804C105.006 25.9347 104.493 26 103.914 26C103.261 26 102.701 25.9067 102.234 25.72C101.786 25.5147 101.422 25.244 101.142 24.908C100.862 24.5533 100.657 24.1427 100.526 23.676C100.395 23.1907 100.33 22.668 100.33 22.108C100.33 21.8653 100.349 21.492 100.386 20.988C100.423 20.484 100.507 19.9147 100.638 19.28C100.787 18.6453 100.993 18.0013 101.254 17.348C101.534 16.676 101.898 16.0693 102.346 15.528C102.813 14.9867 103.382 14.5387 104.054 14.184C104.745 13.8293 105.575 13.652 106.546 13.652C106.845 13.652 107.171 13.68 107.526 13.736C107.881 13.792 108.226 13.8947 108.562 14.044C108.898 14.1933 109.197 14.408 109.458 14.688C109.719 14.968 109.925 15.332 110.074 15.78H110.242L111.502 13.96ZM108.366 16.396C107.918 16.396 107.545 16.6387 107.246 17.124C106.947 17.5907 106.705 18.1413 106.518 18.776C106.331 19.4107 106.191 20.0453 106.098 20.68C106.023 21.296 105.986 21.7533 105.986 22.052C105.986 22.4253 106.042 22.7427 106.154 23.004C106.285 23.2467 106.509 23.368 106.826 23.368C107.013 23.368 107.19 23.3213 107.358 23.228C107.545 23.1347 107.713 23.032 107.862 22.92C108.03 22.7893 108.17 22.6587 108.282 22.528C108.413 22.3973 108.506 22.2947 108.562 22.22L109.598 17.32C109.449 17.1147 109.271 16.9093 109.066 16.704C108.879 16.4987 108.646 16.396 108.366 16.396Z" fill="#1D1D1D"/>
</svg>
