<svg width="20" height="24" viewBox="0 0 20 24" fill="none" xmlns="http://www.w3.org/2000/svg">
<path d="M0.6952 10.9044C0.109413 11.4902 0.109413 12.44 0.6952 13.0257L10.2411 22.5717C10.8269 23.1575 11.7767 23.1575 12.3625 22.5717C12.9482 21.9859 12.9482 21.0362 12.3625 20.4504L3.87718 11.9651L12.3625 3.47981C12.9482 2.89402 12.9482 1.94427 12.3625 1.35849C11.7767 0.772699 10.8269 0.772699 10.2411 1.35849L0.6952 10.9044ZM19.7559 10.4651L1.75586 10.4651V13.4651L19.7559 13.4651V10.4651Z" fill="black"/>
<path d="M0.6952 10.9044C0.109413 11.4902 0.109413 12.44 0.6952 13.0257L10.2411 22.5717C10.8269 23.1575 11.7767 23.1575 12.3625 22.5717C12.9482 21.9859 12.9482 21.0362 12.3625 20.4504L3.87718 11.9651L12.3625 3.47981C12.9482 2.89402 12.9482 1.94427 12.3625 1.35849C11.7767 0.772699 10.8269 0.772699 10.2411 1.35849L0.6952 10.9044ZM19.7559 10.4651L1.75586 10.4651V13.4651L19.7559 13.4651V10.4651Z" fill="#404040"/>
</svg>
