<svg width="40" height="40" viewBox="0 0 40 40" fill="none" xmlns="http://www.w3.org/2000/svg">
<path fill-rule="evenodd" clip-rule="evenodd" d="M20 4C18.7574 4 17.75 4.84276 17.75 5.88235V34.1176C17.75 35.1572 18.7574 36 20 36C21.2427 36 22.25 35.1572 22.25 34.1176V5.88235C22.25 4.84276 21.2427 4 20 4ZM35.75 19.0588C34.5074 19.0588 33.5 19.9015 33.5 20.9411V34.1176C33.5 35.1572 34.5074 36 35.75 36C36.9926 36 38 35.1572 38 34.1176V20.9411C38 19.9015 36.9926 19.0588 35.75 19.0588ZM2 13.4118C2 12.3722 3.00736 11.5294 4.25 11.5294C5.49264 11.5294 6.5 12.3722 6.5 13.4118V34.1177C6.5 35.1573 5.49264 36 4.25 36C3.00736 36 2 35.1573 2 34.1177V13.4118Z" fill="#4267B2"/>
</svg>
