<svg width="18" height="18" viewBox="0 0 18 18" fill="none" xmlns="http://www.w3.org/2000/svg">
<path fill-rule="evenodd" clip-rule="evenodd" d="M10.8802 9.00033L16.6135 3.28033C17.1363 2.7575 17.1363 1.90982 16.6135 1.38699C16.0907 0.864166 15.243 0.864166 14.7202 1.387L9.00016 7.12033L3.28016 1.387V1.387C2.75733 0.864166 1.90966 0.864166 1.38683 1.387C0.864 1.90982 0.864 2.7575 1.38683 3.28033L7.12016 9.00033L1.38683 14.7203C0.864 15.2389 0.860539 16.0831 1.3791 16.6059C1.38166 16.6085 1.38424 16.6111 1.38683 16.6137H1.38683C1.90539 17.1365 2.7496 17.1399 3.27243 16.6214C3.27502 16.6188 3.27759 16.6162 3.28016 16.6137L9.00016 10.8803L14.7202 16.6137V16.6137C15.2387 17.1365 16.0829 17.1399 16.6058 16.6214C16.6083 16.6188 16.6109 16.6162 16.6135 16.6137C17.1363 16.0951 17.1398 15.2509 16.6212 14.7281C16.6187 14.7255 16.6161 14.7229 16.6135 14.7203L10.8802 9.00033Z" fill="#7A7A7A"/>
</svg>
