<svg width="40" height="53" viewBox="0 0 40 53" fill="none" xmlns="http://www.w3.org/2000/svg">
<path d="M39.9929 19.9951C39.9929 8.95086 31.0404 0 19.9969 0C9.10916 0 0.269161 8.70875 0.0237867 19.5386C0.0164499 19.5354 0.00748286 19.5354 0.000961287 19.5354C-0.00392989 19.6332 0.011559 19.7318 0.00911344 19.8305C0.00829824 19.8851 0.000961287 19.9405 0.000961287 19.9951C0.000961287 20.1941 0.0254173 20.3856 0.0311237 20.5821C0.256118 33.5747 14.9419 47.2847 19.9969 52.1644C34.1936 40.6547 38.3266 29.978 39.5209 24.2855C39.5641 24.0858 39.6024 23.8869 39.6391 23.6872C39.754 23.0741 39.8339 22.5247 39.8894 22.0535C39.8894 22.0478 39.891 22.0421 39.891 22.0364C40.0402 20.7207 39.9929 19.9951 39.9929 19.9951Z" fill="#4267B2"/>
<path d="M13.7558 11.2527H20.7026C22.4451 11.2527 23.9915 11.5981 25.3416 12.2888C26.6917 12.9796 27.7357 13.9529 28.4735 15.2088C29.2271 16.449 29.6039 17.8776 29.6039 19.4946C29.6039 21.1116 29.2271 22.5481 28.4735 23.804C27.7357 25.0442 26.6917 26.0097 25.3416 26.7004C23.9915 27.3912 22.4451 27.7366 20.7026 27.7366H13.7558V11.2527ZM20.5613 25.6879C21.8957 25.6879 23.0653 25.4288 24.07 24.9108C25.0904 24.3927 25.8754 23.6705 26.4248 22.7443C26.9743 21.8024 27.249 20.7191 27.249 19.4946C27.249 18.2701 26.9743 17.1947 26.4248 16.2685C25.8754 15.3266 25.0904 14.5966 24.07 14.0785C23.0653 13.5604 21.8957 13.3014 20.5613 13.3014H16.1106V25.6879H20.5613Z" fill="white"/>
</svg>
