<svg width="34" height="34" viewBox="0 0 34 34" fill="none" xmlns="http://www.w3.org/2000/svg">
<path fill-rule="evenodd" clip-rule="evenodd" d="M16.6667 0.333374V0.333374C7.46192 0.333374 0 7.79529 0 17C4.02352e-07 26.2048 7.46192 33.6667 16.6667 33.6667C25.8714 33.6667 33.3333 26.2048 33.3333 17V17C33.3333 7.79529 25.8714 0.333375 16.6667 0.333375V0.333374ZM18.3333 23.6667V23.6667C18.3333 24.5872 17.5871 25.3334 16.6667 25.3334C15.7462 25.3334 15 24.5872 15 23.6667V15.3334V15.3334C15 14.4129 15.7462 13.6667 16.6667 13.6667C17.5871 13.6667 18.3333 14.4129 18.3333 15.3334V15.3334V23.6667ZM16.6667 12V12C15.7462 12 15 11.2538 15 10.3334C15 9.4129 15.7462 8.66671 16.6667 8.66671C17.5871 8.66671 18.3333 9.4129 18.3333 10.3334V10.3334C18.3333 11.2538 17.5871 12 16.6667 12V12Z" fill="#4267B2"/>
</svg>
