<svg width="40" height="40" viewBox="0 0 40 40" fill="none" xmlns="http://www.w3.org/2000/svg">
<path fill-rule="evenodd" clip-rule="evenodd" d="M24.459 35.0433H24.359V35.0433C23.6047 34.9978 22.9754 34.4506 22.8257 33.7099L20.259 21.0933V21.0933C20.1254 20.4385 19.6137 19.9268 18.959 19.7933L6.34232 17.2266H6.34232C5.43948 17.0473 4.85294 16.17 5.03225 15.2672C5.14909 14.6789 5.57302 14.1987 6.14232 14.0099L32.809 5.12659V5.12659C33.6598 4.77529 34.6343 5.18022 34.9856 6.03102C35.1453 6.41783 35.1537 6.85057 35.009 7.24326L26.1257 33.9099V33.9099C25.8873 34.6189 25.2059 35.0822 24.459 35.0433L24.459 35.0433Z" fill="#4267B2"/>
</svg>
