<svg width="40" height="53" viewBox="0 0 40 53" fill="none" xmlns="http://www.w3.org/2000/svg">
<path d="M39.9929 19.9951C39.9929 8.95086 31.0404 0 19.9969 0C9.10916 0 0.269161 8.70875 0.0237867 19.5386C0.0164499 19.5354 0.00748286 19.5354 0.000961287 19.5354C-0.00392989 19.6332 0.011559 19.7318 0.00911344 19.8305C0.00829824 19.8851 0.000961287 19.9405 0.000961287 19.9951C0.000961287 20.1941 0.0254173 20.3856 0.0311237 20.5821C0.256118 33.5747 14.9419 47.2847 19.9969 52.1644C34.1936 40.6547 38.3266 29.978 39.5209 24.2855C39.5641 24.0858 39.6024 23.8869 39.6391 23.6872C39.754 23.0741 39.8339 22.5247 39.8894 22.0535C39.8894 22.0478 39.891 22.0421 39.891 22.0364C40.0402 20.7207 39.9929 19.9951 39.9929 19.9951Z" fill="#4267B2"/>
<path d="M21.6572 11.2527C23.7922 11.2527 25.472 11.7629 26.6965 12.7833C27.921 13.8038 28.5333 15.2088 28.5333 16.9985C28.5333 18.7882 27.921 20.1932 26.6965 21.2137C25.472 22.2341 23.7922 22.7443 21.6572 22.7443H17.5833V27.7366H15.2284V11.2527H21.6572ZM21.5865 20.6956C23.0779 20.6956 24.2161 20.3816 25.001 19.7537C25.786 19.11 26.1785 18.1916 26.1785 16.9985C26.1785 15.8054 25.786 14.8948 25.001 14.2669C24.2161 13.6232 23.0779 13.3014 21.5865 13.3014H17.5833V20.6956H21.5865Z" fill="white"/>
</svg>
