<svg width="171" height="186" viewBox="0 0 171 186" fill="none" xmlns="http://www.w3.org/2000/svg">
<path d="M29.864 177.528L44.48 169.08L39.608 166.272L24.992 174.708L29.864 177.528Z" fill="#4267B2"/>
<path d="M59.108 160.644L73.736 152.196L68.852 149.388L54.236 157.824L59.108 160.644Z" fill="#4267B2"/>
<path d="M53.096 157.2C53.096 164.256 48.152 172.8 42.044 176.4C38.792 178.284 35.864 178.344 33.848 176.928C33.0352 176.289 32.3677 175.485 31.8897 174.568C31.4118 173.652 31.1344 172.644 31.076 171.612C31.4864 171.42 31.8869 171.208 32.276 170.976C38.384 167.46 43.328 158.88 43.328 151.776C43.3337 151.25 43.3017 150.725 43.232 150.204C44.1474 149.72 45.1536 149.431 46.1865 149.357C47.2195 149.282 48.2566 149.424 49.232 149.772C51.632 150.78 53.096 153.384 53.096 157.2Z" fill="#263238"/>
<path d="M54.092 142.704L53.888 142.584C50.816 140.952 46.688 141.252 42.044 143.916C32.624 149.352 24.98 162.576 24.98 173.46C24.98 178.932 26.912 182.76 30.032 184.536C33.152 186.312 37.364 186.012 42.032 183.336C51.452 177.9 59.084 164.664 59.084 153.78C59.096 148.308 57.2 144.48 54.092 142.704ZM42.092 176.376C38.828 178.26 35.9 178.32 33.884 176.892C32.108 175.692 31.028 173.292 31.028 169.992C31.028 162.948 35.984 154.392 42.092 150.792C44.876 149.184 47.408 148.908 49.292 149.736C51.62 150.732 53.084 153.336 53.084 157.176C53.096 164.28 48.152 172.86 42.044 176.4L42.092 176.376Z" fill="#37474F"/>
<path d="M49.856 150.06L49.724 149.988C47.732 148.92 45.032 149.124 42.044 150.84C35.936 154.368 30.98 162.948 30.98 170.04C30.98 173.64 32.18 176.04 34.256 177.24C36.332 178.44 39.056 178.2 42.044 176.448C48.152 172.92 53.096 164.34 53.096 157.248C53.096 153.696 51.86 151.2 49.856 150.06ZM42.044 173.88C39.428 175.392 37.076 175.44 35.444 174.288C34.028 173.292 33.152 171.384 33.152 168.744C33.3201 165.66 34.2128 162.658 35.7577 159.983C37.3027 157.308 39.4563 155.035 42.044 153.348C42.8846 152.761 43.8506 152.378 44.8652 152.23C45.8797 152.083 46.9148 152.173 47.888 152.496C49.76 153.3 50.936 155.388 50.936 158.496C50.7689 161.579 49.8765 164.579 48.3314 167.252C46.7863 169.925 44.6321 172.196 42.044 173.88Z" fill="#4267B2"/>
<path d="M88.352 143.748L102.98 135.312L98.108 132.492L83.4799 140.94L88.352 143.748Z" fill="#4267B2"/>
<path d="M117.608 126.864L132.224 118.428L127.352 115.608L112.724 124.056L117.608 126.864Z" fill="#4267B2"/>
<path d="M146.852 109.98L161.468 101.544L156.596 98.724L141.968 107.172L146.852 109.98Z" fill="#4267B2"/>
<path d="M74.072 31.464C74.2249 31.2598 74.4389 31.1096 74.6829 31.0353C74.9269 30.9609 75.1883 30.9663 75.429 31.0506C75.6698 31.1348 75.8774 31.2936 76.0218 31.5039C76.1662 31.7142 76.2399 31.965 76.232 32.22C76.3259 32.903 76.2562 33.5986 76.0288 34.2495C75.8014 34.9003 75.4228 35.4879 74.924 35.964C73.964 36.792 72.992 36.456 72.764 35.208C72.6712 34.525 72.7413 33.8297 72.9686 33.179C73.196 32.5282 73.5741 31.9405 74.072 31.464Z" fill="#4267B2"/>
<path d="M85.328 36.768L75.548 31.116L73.4 36.288L83.216 41.952L85.328 36.768Z" fill="#4267B2"/>
<path d="M83.828 37.092C84.788 36.276 85.748 36.612 85.988 37.86C86.0764 38.542 86.003 39.2353 85.7737 39.8837C85.5443 40.532 85.1656 41.1173 84.668 41.592C83.708 42.42 82.736 42.084 82.508 40.836C82.4205 40.1522 82.4943 39.4575 82.7235 38.8073C82.9527 38.1572 83.331 37.5697 83.828 37.092Z" fill="#4267B2"/>
<path d="M158.996 84.42C158.996 84.66 158.996 84.876 158.996 85.116C158.996 85.596 158.996 86.088 158.996 86.58C157.052 85.752 154.52 86.028 151.736 87.636C145.628 91.164 140.672 99.744 140.672 106.836C140.672 110.124 141.752 112.5 143.528 113.736C143.029 114.091 142.513 114.419 141.98 114.72L141.416 115.008L139.724 121.38L129.932 115.92C126.836 114.132 124.928 110.316 124.928 104.868C124.928 93.984 132.56 80.76 141.98 75.312C146.636 72.624 150.848 72.348 153.98 74.112L163.58 79.488L163.784 79.608L158.996 84.42Z" fill="#455A64"/>
<path d="M163.772 79.5L163.568 79.38C160.496 77.748 156.368 78.048 151.724 80.712C142.304 86.148 134.66 99.372 134.66 110.256C134.66 115.728 136.592 119.556 139.712 121.332C142.832 123.108 147.044 122.808 151.712 120.132C161.132 114.696 168.764 101.46 168.764 90.576C168.8 85.104 166.868 81.276 163.772 79.5ZM151.772 113.172C148.508 115.056 145.58 115.116 143.564 113.688C141.788 112.488 140.708 110.088 140.708 106.788C140.708 99.744 145.664 91.188 151.772 87.588C154.556 85.98 157.088 85.704 159.032 86.532C161.36 87.528 162.824 90.132 162.824 93.972C162.8 101.076 157.832 109.656 151.724 113.172H151.772Z" fill="#37474F"/>
<path d="M162.8 94.02C162.8 101.076 157.856 109.62 151.748 113.22C148.496 115.104 145.568 115.164 143.552 113.748C142.739 113.109 142.072 112.305 141.594 111.388C141.116 110.472 140.838 109.464 140.78 108.432C141.19 108.24 141.591 108.028 141.98 107.796C148.088 104.28 153.032 95.7 153.032 88.596C153.038 88.0703 153.006 87.545 152.936 87.024C153.851 86.5396 154.858 86.2511 155.891 86.1767C156.924 86.1024 157.961 86.2438 158.936 86.592C161.312 87.6 162.8 90.18 162.8 94.02Z" fill="#263238"/>
<path d="M159.536 86.856L159.404 86.772C157.412 85.716 154.7 85.908 151.724 87.636C145.616 91.164 140.66 99.732 140.66 106.836C140.66 110.436 141.86 112.836 143.936 114.036C146.012 115.236 148.736 114.984 151.724 113.232C157.832 109.716 162.776 101.136 162.776 94.032C162.8 90.492 161.6 88.008 159.536 86.856ZM151.724 110.664C149.096 112.188 146.744 112.236 145.124 111.084C143.696 110.088 142.832 108.18 142.832 105.54C143 102.456 143.893 99.4541 145.438 96.7791C146.983 94.1042 149.136 91.831 151.724 90.144C153.956 88.848 155.996 88.62 157.556 89.292C159.428 90.096 160.604 92.184 160.604 95.292C160.437 98.3721 159.546 101.369 158.003 104.04C156.46 106.711 154.309 108.981 151.724 110.664Z" fill="#4267B2"/>
<path d="M141.968 97.608L169.568 81.672C172.772 79.812 162.368 68.952 154.628 68.22C150.367 67.7052 146.045 68.1145 141.956 69.42C141.956 69.42 147.848 76.968 146.84 81.252C145.832 85.536 141.968 97.608 141.968 97.608Z" fill="#4267B2"/>
<path d="M102.98 52.572C102.98 52.572 142.988 72.756 144.716 73.968C146.444 75.18 144.716 89.256 141.968 97.608C139.22 105.96 134.996 118.8 133.304 122.4C131.612 126 129.404 127.344 125.348 129.684L96.548 146.328L57.56 151.08L42.08 142.68L46.112 117.348C46.112 117.348 87.548 95.304 93.224 92.028C98.9 88.752 115.688 73.38 102.98 52.572Z" fill="#4267B2"/>
<path opacity="0.2" d="M102.98 52.572C102.98 52.572 142.988 72.756 144.716 73.968C146.444 75.18 144.716 89.256 141.968 97.608C139.22 105.96 134.996 118.8 133.304 122.4C131.612 126 129.404 127.344 125.348 129.684L96.548 146.328L57.56 151.08L42.08 142.68L46.112 117.348C46.112 117.348 87.548 95.304 93.224 92.028C98.9 88.752 115.688 73.38 102.98 52.572Z" fill="black"/>
<path d="M145.484 92.796C149.084 83.124 151.772 75.108 151.316 69.696C150.764 63.276 148.364 58.032 137.78 55.392C127.196 52.752 112.4 52.8 112.4 52.8L107.9 55.404C107.9 55.404 138.332 73.044 141.788 74.964C143.9 76.164 146.156 81.456 142.016 97.62L142.724 98.028C143.072 98.244 144.332 95.904 145.484 92.796Z" fill="#4267B2"/>
<path opacity="0.3" d="M145.484 92.796C149.084 83.124 151.772 75.108 151.316 69.696C150.764 63.276 148.364 58.032 137.78 55.392C127.196 52.752 112.4 52.8 112.4 52.8L107.9 55.404C107.9 55.404 138.332 73.044 141.788 74.964C143.9 76.164 146.156 81.456 142.016 97.62L142.724 98.028C143.072 98.244 144.332 95.904 145.484 92.796Z" fill="white"/>
<path d="M122.432 63.828L127.352 61.02C127.352 61.02 127.064 43.968 119.888 39.828C112.712 35.688 88.352 38.508 88.352 38.508L83.4799 41.316L122.432 63.828Z" fill="#4267B2"/>
<path d="M106.472 43.728C104.132 45.084 104.132 47.268 106.472 48.612C107.784 49.2801 109.236 49.6283 110.708 49.6283C112.18 49.6283 113.632 49.2801 114.944 48.612C117.272 47.268 117.272 45.072 114.944 43.728C113.63 43.0655 112.179 42.7204 110.708 42.7204C109.237 42.7204 107.786 43.0655 106.472 43.728Z" fill="#F0F0F0"/>
<path d="M113.96 51.876C112.316 52.836 112.316 54.384 113.96 55.332C114.889 55.807 115.917 56.0547 116.96 56.0547C118.003 56.0547 119.031 55.807 119.96 55.332C121.616 54.384 121.616 52.836 119.96 51.876C119.03 51.4066 118.002 51.162 116.96 51.162C115.918 51.162 114.89 51.4066 113.96 51.876Z" fill="#F0F0F0"/>
<path d="M95.1081 41.556C93.4521 42.504 93.4521 44.0519 95.1081 45.0119C96.0384 45.4814 97.066 45.7259 98.108 45.7259C99.1501 45.7259 100.178 45.4814 101.108 45.0119C102.764 44.0519 102.764 42.504 101.108 41.556C100.179 41.081 99.1511 40.8333 98.108 40.8333C97.0649 40.8333 96.0367 41.081 95.1081 41.556Z" fill="#F0F0F0"/>
<path d="M123.2 58.884C124.16 58.056 125.12 58.392 125.36 59.64C125.448 60.3238 125.375 61.0189 125.146 61.6692C124.917 62.3195 124.538 62.9069 124.04 63.384C123.887 63.5882 123.673 63.7384 123.429 63.8127C123.185 63.887 122.924 63.8817 122.683 63.7974C122.442 63.7131 122.235 63.5543 122.09 63.3441C121.946 63.1338 121.872 62.883 121.88 62.628C121.788 61.944 121.859 61.2478 122.089 60.5969C122.318 59.9459 122.699 59.3589 123.2 58.884Z" fill="#4267B2"/>
<path d="M134.396 64.188L124.604 58.536L122.468 63.708L132.272 69.36L134.396 64.188Z" fill="#4267B2"/>
<path d="M132.884 64.512C133.037 64.3078 133.251 64.1577 133.495 64.0833C133.739 64.009 134 64.0144 134.241 64.0986C134.482 64.1829 134.689 64.3417 134.834 64.552C134.978 64.7622 135.052 65.013 135.044 65.268C135.135 65.952 135.063 66.6478 134.834 67.2986C134.604 67.9494 134.224 68.5365 133.724 69.012C132.764 69.84 131.804 69.492 131.564 68.256C131.475 67.5721 131.547 66.8768 131.777 66.2264C132.006 65.5759 132.385 64.9886 132.884 64.512Z" fill="#4267B2"/>
<path d="M132.884 64.512C133.037 64.3078 133.251 64.1577 133.495 64.0833C133.739 64.009 134 64.0144 134.241 64.0986C134.482 64.1829 134.689 64.3417 134.834 64.552C134.978 64.7622 135.052 65.013 135.044 65.268C135.135 65.952 135.063 66.6478 134.834 67.2986C134.604 67.9494 134.224 68.5365 133.724 69.012C132.764 69.84 131.804 69.492 131.564 68.256C131.475 67.5721 131.547 66.8768 131.777 66.2264C132.006 65.5759 132.385 64.9886 132.884 64.512Z" fill="black"/>
<path d="M49.316 147.6C49.316 147.84 49.316 148.056 49.316 148.296C49.316 148.776 49.316 149.268 49.316 149.76C47.372 148.932 44.84 149.208 42.116 150.816C36.008 154.344 31.052 162.924 31.052 170.016C31.052 173.304 32.132 175.68 33.908 176.916C33.4094 177.271 32.8927 177.599 32.36 177.9L31.796 178.188L30.104 184.56L20.312 179.1C17.216 177.312 15.308 173.496 15.308 168.048C15.308 157.164 22.94 143.94 32.36 138.492C37.016 135.804 41.228 135.528 44.36 137.292L53.96 142.668L54.164 142.788L49.316 147.6Z" fill="#455A64"/>
<path d="M20.108 128.556L12.8 153.888L27.428 162.336L35 137.16L20.108 128.556Z" fill="#4267B2"/>
<path opacity="0.2" d="M20.108 128.556L12.8 153.888L27.428 162.336L35 137.16L20.108 128.556Z" fill="black"/>
<path d="M20.108 128.556C20.108 128.556 28.4 135.6 35 137.16C43.664 139.26 57.44 139.488 62.324 139.824C69.788 140.34 75.428 140.328 78.068 139.38C81.488 138.18 90.68 132.84 93.224 131.376C98.096 128.568 100.172 117.516 86.744 114.492C77.6646 112.611 68.4162 111.666 59.144 111.672L20.108 128.556Z" fill="#4267B2"/>
<path d="M102.8 125.316C102.383 126.36 102.1 127.453 101.96 128.568C101.573 129.727 101.483 130.965 101.696 132.168C102.611 133.681 104.05 134.804 105.74 135.324C106.957 135.595 108.217 135.612 109.442 135.374C110.666 135.137 111.828 134.65 112.856 133.944C115.34 132.456 117.212 130.656 120.74 129.648C123.262 129.114 125.637 128.037 127.7 126.492C129.656 124.92 132.272 120.576 128.528 119.568C124.784 118.56 116.648 122.112 109.232 122.436L102.8 125.316Z" fill="#37474F"/>
<path d="M102.8 120.684V126.228C103.027 126.851 103.422 127.399 103.94 127.812C104.459 128.225 105.082 128.487 105.74 128.568C106.343 128.656 106.958 128.59 107.528 128.376C108.427 128.033 109.206 127.434 109.769 126.654C110.332 125.873 110.654 124.945 110.696 123.984L110.912 120.684H102.8Z" fill="#FFA8A7"/>
<path d="M113.36 86.4C113.36 93.3 111.416 123.132 111.416 123.132C111.416 123.132 108.596 126.732 102.464 123.132L100.4 89.796L113.36 86.4Z" fill="#37474F"/>
<path d="M81.2 115.8L100.4 104.736C101.187 104.323 101.846 103.703 102.305 102.942C102.765 102.182 103.008 101.311 103.008 100.422C103.008 99.5334 102.765 98.6618 102.305 97.9015C101.846 97.1411 101.187 96.5209 100.4 96.108L86.096 87.852C85.2907 87.444 84.4007 87.2314 83.498 87.2314C82.5953 87.2314 81.7052 87.444 80.9 87.852L61.7 98.916C60.9166 99.3317 60.2613 99.953 59.8042 100.713C59.3472 101.473 59.1057 102.343 59.1057 103.23C59.1057 104.117 59.3472 104.987 59.8042 105.747C60.2613 106.507 60.9166 107.128 61.7 107.544L76.004 115.8C76.8092 116.208 77.6993 116.421 78.602 116.421C79.5047 116.421 80.3947 116.208 81.2 115.8Z" fill="#4267B2"/>
<path d="M81.2 115.8L100.4 104.736C101.187 104.323 101.846 103.703 102.305 102.942C102.765 102.182 103.008 101.311 103.008 100.422C103.008 99.5334 102.765 98.6618 102.305 97.9015C101.846 97.1411 101.187 96.5209 100.4 96.108L86.096 87.852C85.2907 87.444 84.4007 87.2314 83.498 87.2314C82.5953 87.2314 81.7052 87.444 80.9 87.852L61.7 98.916C60.9166 99.3317 60.2613 99.953 59.8042 100.713C59.3472 101.473 59.1057 102.343 59.1057 103.23C59.1057 104.117 59.3472 104.987 59.8042 105.747C60.2613 106.507 60.9166 107.128 61.7 107.544L76.004 115.8C76.8092 116.208 77.6993 116.421 78.602 116.421C79.5047 116.421 80.3947 116.208 81.2 115.8Z" fill="white"/>
<path d="M61.7 101.916L76.004 110.172C76.8093 110.58 77.6993 110.793 78.602 110.793C79.5047 110.793 80.3948 110.58 81.2 110.172L100.4 99.108C100.713 99.0016 100.986 98.7997 101.179 98.5307C101.371 98.2617 101.475 97.939 101.475 97.608C101.475 97.277 101.371 96.9543 101.179 96.6853C100.986 96.4162 100.713 96.2143 100.4 96.108L86.096 87.852C85.2908 87.444 84.4007 87.2314 83.498 87.2314C82.5953 87.2314 81.7053 87.444 80.9 87.852L61.7 98.916C61.3866 99.0223 61.1143 99.2242 60.9215 99.4933C60.7287 99.7623 60.625 100.085 60.625 100.416C60.625 100.747 60.7287 101.07 60.9215 101.339C61.1143 101.608 61.3866 101.81 61.7 101.916Z" fill="#4267B2"/>
<path d="M73.4 28.476L70.964 38.52L60.5 39.156L62.756 25.236L73.4 28.476Z" fill="#FFA8A7"/>
<path d="M83.6001 20.9159C83.6001 20.9159 84.8 25.1639 84.3081 25.4039C83.5524 25.5192 82.7837 25.5192 82.0281 25.4039L83.6001 20.9159Z" fill="#F28F8F"/>
<path d="M81.596 7.35598C83.276 9.33599 84.812 12.588 83.624 20.556C82.328 29.268 80.72 30.276 79.424 31.116C77.732 32.22 70.964 31.632 69.056 30.24C66.764 28.572 63.224 23.28 62.384 18.06C61.4 11.928 63.452 5.12398 67.964 3.95998C74.312 2.31598 80.168 5.67598 81.596 7.35598Z" fill="#FFA8A7"/>
<path d="M61.7 28.056C63.32 29.736 66.644 30.192 68.732 30.576C70.82 30.96 77.24 31.38 79.136 26.808C81.032 22.236 79.736 18.948 82.064 17.844C84.392 16.74 86.72 16.02 87.332 15.444C87.944 14.868 87.956 7.34397 81.704 3.44397C75.452 -0.456029 65.876 -1.35602 59.576 6.55199C54.8 12.66 56.756 22.896 61.7 28.056Z" fill="#455A64"/>
<path d="M68 30.6359C69.62 30.7799 74.744 29.9759 76.292 27.8639C77.84 25.7519 78.464 21.9719 78.692 19.9919C78.713 19.2121 78.9989 18.4627 79.5028 17.8672C80.0067 17.2717 80.6984 16.8657 81.464 16.7159C83.012 16.2239 86.432 14.5439 86.432 14.5439V13.6079C87.5349 13.5386 88.6411 13.5386 89.744 13.6079C90.464 13.7399 90.068 14.8079 88.244 15.7319C86.42 16.6559 81.416 18.4439 80.648 19.0559C79.88 19.6679 79.52 22.2479 78.908 24.9959C78.296 27.7439 76.4 31.8479 68 30.6359Z" fill="#37474F"/>
<path d="M82.4 42L88.4 38.556C88.976 36.816 88.052 35.94 86.42 36.048C84.788 36.156 85.292 34.572 84.296 34.128C82.988 33.528 82.244 33.864 81.656 33.588C81.068 33.312 80.816 32.616 80.048 32.532C76.616 32.208 74.276 37.104 74.276 37.104L82.4 42Z" fill="#F28F8F"/>
<path d="M41.672 86.064C41.672 86.064 68.18 72.924 72.8 70.8C77.42 68.676 84.668 65.592 88.52 65.592C90.0253 65.7164 91.4352 66.3794 92.4911 67.4595C93.5469 68.5396 94.1778 69.9642 94.268 71.472C94.3179 73.7868 94.1854 76.102 93.872 78.396C86.5889 80.7852 79.1465 82.6578 71.6 84C60.572 85.92 41.672 86.064 41.672 86.064Z" fill="#37474F"/>
<path d="M44.552 78.4679C44.552 83.916 44.036 89.58 46.304 93.564C48.572 97.548 60.86 106.764 72.428 104.832C79.988 103.56 102.428 93.228 102.428 93.228C102.428 93.228 113.312 89.232 113.36 86.388C113.432 82.2 113.144 76.2959 103.652 76.5479C95 76.7759 69.476 82.104 69.476 82.104L44.552 78.4679Z" fill="#455A64"/>
<path d="M51.956 35.304C56.06 31.02 58.832 30.66 60.8 31.188C65.3228 32.4824 69.7016 34.2355 73.868 36.42C73.868 36.42 72.284 51.756 79.784 56.172V80.076C79.784 80.076 79.556 82.668 76.292 85.248C73.412 87.516 66.896 89.808 59.12 89.16C49.88 88.392 44.552 78.468 44.552 78.468C44.552 78.468 44.312 58.92 45.62 51.156C47.156 42.096 50.54 36.792 51.956 35.304Z" fill="#455A64"/>
<path d="M79.784 57.336C79.784 57.336 75.248 53.736 73.868 49.056C73.868 49.056 74.408 56.4 79.784 60.12V57.336Z" fill="#37474F"/>
<path d="M121.772 68.616C123.926 68.7047 126.046 68.0478 127.772 66.756C127.772 66.756 129.86 62.7 132.428 63.048C132.428 63.048 132.884 61.32 131.828 60.756C130.772 60.192 130.316 60.348 129.884 59.748C129.452 59.148 129.404 58.032 127.484 58.032C126.692 58.032 126.8 57.468 124.88 57.24C122.96 57.012 121.064 61.44 119.66 61.44L121.772 68.616Z" fill="#FFA8A7"/>
<path d="M73.8679 36.42C80.4559 37.44 82.8439 39.3959 85.2439 41.6159C87.644 43.8359 102.332 58.5719 102.332 58.5719L120.116 61.1279C121.051 61.8847 121.736 62.9048 122.084 64.0559C122.804 66.1439 122.156 68.4239 121.472 68.9639C121.472 68.9639 103.832 70.0199 100.364 69.3599C96.896 68.6999 79.724 57.2999 79.724 57.2999C78.0827 56.0622 76.7061 54.5081 75.6756 52.7293C74.645 50.9506 73.9814 48.9834 73.7239 46.9439C72.6079 39.7079 73.8679 36.42 73.8679 36.42Z" fill="#455A64"/>
<path d="M58.052 99.804L30.8 133.068C30.4975 133.106 30.1929 133.126 29.888 133.128C28.8074 133.145 27.7394 132.893 26.78 132.396L3.76399 119.1L2.20399 118.2C1.35199 117.708 0.643982 115.692 0.643982 113.7V108.096C0.643053 102.339 2.15738 96.6839 5.03476 91.698C7.91214 86.712 12.0512 82.5713 17.036 79.692L44.516 63.828L73.76 80.712L58.052 99.804Z" fill="#4267B2"/>
<g opacity="0.1">
<path opacity="0.1" d="M58.052 99.804L30.8 133.068C30.4975 133.106 30.1929 133.126 29.888 133.128C28.8074 133.145 27.7394 132.893 26.78 132.396L3.76399 119.1L2.20399 118.2C1.35199 117.708 0.643982 115.692 0.643982 113.7V108.096C0.643053 102.339 2.15738 96.6839 5.03476 91.698C7.91214 86.712 12.0512 82.5713 17.036 79.692L44.516 63.828L73.76 80.712L58.052 99.804Z" fill="black"/>
</g>
<path d="M48.656 111.276L73.724 80.724L44.48 63.84L17.012 79.692C13.4588 81.749 10.3243 84.4561 7.77197 87.6719L48.656 111.276Z" fill="#4267B2"/>
<path d="M73.7241 105.252C73.7241 107.244 73.0281 109.26 72.1641 109.752L70.6041 110.652L32.9721 132.384C32.2873 132.753 31.5374 132.985 30.7641 133.068C30.4615 133.106 30.157 133.126 29.8521 133.128V124.98C29.8511 119.222 31.3667 113.565 34.2464 108.579C37.1261 103.593 41.2682 99.4529 46.2561 96.576L49.3641 94.788L73.7241 80.712V105.252Z" fill="#4267B2"/>
<g opacity="0.2">
<path opacity="0.2" d="M73.7241 105.252C73.7241 107.244 73.0281 109.26 72.1641 109.752L70.6041 110.652L32.9721 132.384C32.2873 132.753 31.5374 132.985 30.7641 133.068C30.4615 133.106 30.157 133.126 29.8521 133.128V124.98C29.8511 119.222 31.3667 113.565 34.2464 108.579C37.1261 103.593 41.2682 99.4529 46.2561 96.576L49.3641 94.788L73.7241 80.712V105.252Z" fill="black"/>
</g>
<path d="M81.8001 146.412L96.524 146.364L117.596 134.196L96.956 149.112L81.416 149.328L81.8001 146.412Z" fill="#E0E0E0"/>
<path d="M46.052 167.364C46.052 167.364 72.5961 157.356 74.8521 156.18C77.4998 154.557 80.012 152.723 82.3641 150.696C82.844 150.061 83.0695 149.27 82.9962 148.477C82.923 147.685 82.5563 146.948 81.9681 146.412C81.9681 146.412 71.168 145.92 68.396 146.772C66.848 147.24 41.864 155.256 41.864 155.256L46.052 167.364Z" fill="#E0E0E0"/>
<path d="M44.864 156.18C42.668 154.296 40.46 155.076 39.92 157.908C39.7138 159.471 39.879 161.06 40.4024 162.546C40.9257 164.033 41.7924 165.375 42.932 166.464C45.128 168.348 47.336 167.58 47.876 164.736C48.0812 163.173 47.9155 161.585 47.3922 160.098C46.8689 158.612 46.0028 157.269 44.864 156.18Z" fill="#455A64"/>
</svg>
