<svg width="32" height="32" viewBox="0 0 32 32" fill="none" xmlns="http://www.w3.org/2000/svg">
<path d="M12.6667 0C19.6623 0 25.3333 5.67106 25.3333 12.6667C25.3333 15.4426 24.4404 18.0099 22.9261 20.0972L31.4142 28.5858C32.1953 29.3668 32.1953 30.6332 31.4142 31.4142C30.682 32.1464 29.5232 32.1922 28.7377 31.5515L28.5858 31.4142L20.0972 22.9261C18.0099 24.4404 15.4426 25.3333 12.6667 25.3333C5.67106 25.3333 0 19.6623 0 12.6667C0 5.67106 5.67106 0 12.6667 0ZM12.6667 4C7.8802 4 4 7.8802 4 12.6667C4 17.4531 7.8802 21.3333 12.6667 21.3333C17.4531 21.3333 21.3333 17.4531 21.3333 12.6667C21.3333 7.8802 17.4531 4 12.6667 4Z" fill="#4267B2"/>
</svg>
