<svg width="31" height="31" viewBox="0 0 31 31" fill="none" xmlns="http://www.w3.org/2000/svg">
<path fill-rule="evenodd" clip-rule="evenodd" d="M19.459 30.0433H19.359V30.0433C18.6047 29.9978 17.9754 29.4506 17.8257 28.7099L15.259 16.0933V16.0933C15.1254 15.4385 14.6137 14.9268 13.959 14.7933L1.34232 12.2266H1.34232C0.439476 12.0473 -0.147062 11.17 0.0322479 10.2672C0.149088 9.67889 0.573021 9.19874 1.14232 9.00993L27.809 0.126594V0.126594C28.6598 -0.224708 29.6343 0.180216 29.9856 1.03102C30.1453 1.41783 30.1537 1.85057 30.009 2.24326L21.1257 28.9099V28.9099C20.8873 29.6189 20.2059 30.0822 19.459 30.0433L19.459 30.0433Z" fill="#4267B2"/>
</svg>
