<svg width="16" height="14" viewBox="0 0 16 14" fill="none" xmlns="http://www.w3.org/2000/svg">
<path fill-rule="evenodd" clip-rule="evenodd" d="M14.3553 3.65754C14.3655 3.80331 14.3655 3.94911 14.3655 4.09488C14.3655 8.54103 11.066 13.664 5.03553 13.664C3.17766 13.664 1.45178 13.1122 0 12.1542C0.263969 12.1855 0.51775 12.1959 0.791875 12.1959C2.32484 12.1959 3.73603 11.6648 4.86294 10.759C3.42131 10.7277 2.21319 9.75934 1.79694 8.42651C2 8.45773 2.20303 8.47857 2.41625 8.47857C2.71066 8.47857 3.00509 8.4369 3.27919 8.36405C1.77666 8.05164 0.649719 6.69802 0.649719 5.06325V5.02161C1.08625 5.27151 1.59391 5.4277 2.13194 5.4485C1.24869 4.84456 0.670031 3.81373 0.670031 2.64751C0.670031 2.02276 0.832438 1.45007 1.11672 0.950264C2.73094 2.99113 5.15734 4.32392 7.87813 4.46972C7.82737 4.21982 7.79691 3.95953 7.79691 3.69921C7.79691 1.84575 9.25884 0.335938 11.0761 0.335938C12.0203 0.335938 12.873 0.742027 13.472 1.39802C14.2131 1.25225 14.9238 0.971098 15.5533 0.585841C15.3096 1.3668 14.7918 2.0228 14.1116 2.43927C14.7715 2.36642 15.4111 2.17895 15.9999 1.91866C15.5533 2.58504 14.9949 3.17853 14.3553 3.65754Z" fill="white"/>
</svg>
