<svg width="24" height="22" viewBox="0 0 24 22" fill="none" xmlns="http://www.w3.org/2000/svg">
<path d="M11.6172 10.9372C11.6172 10.9536 11.6172 10.97 11.6172 10.9864C11.6172 11.011 11.6172 11.0329 11.6172 11.0575C11.6172 11.0657 11.6172 11.0739 11.6172 11.0793C11.6172 11.0903 11.6172 11.0985 11.6172 11.1094C11.6172 11.1258 11.6172 11.145 11.6199 11.1614C11.6199 11.1696 11.6199 11.1805 11.6227 11.1887C11.6227 11.1997 11.6227 11.2106 11.6254 11.2188C11.6855 12.2825 12.1422 13.2723 12.916 14.0215C13.4273 14.5137 14.0371 14.8692 14.7016 15.0633C15.0926 15.1782 15.5027 15.2383 15.9211 15.2383H22.6613V19.5532C22.6613 20.6688 21.7535 21.5739 20.6406 21.5739H2.21367C1.10352 21.5739 0.201172 20.6715 0.201172 19.5614V2.44145C0.201172 1.3313 1.10352 0.428955 2.21367 0.428955H20.6406C21.7563 0.428955 22.6613 1.33677 22.6613 2.44966V6.76177H15.8691C15.3633 6.76177 14.8766 6.8438 14.4199 7.00239C13.8348 7.20747 13.3043 7.5356 12.8641 7.97583C12.618 8.22192 12.4047 8.49263 12.2297 8.77974C12.2215 8.79341 12.2133 8.80708 12.2051 8.82349C12.1777 8.86724 12.1531 8.91099 12.1285 8.95474C12.1203 8.96841 12.1121 8.98481 12.1039 8.99849C12.0875 9.02856 12.0738 9.05864 12.0574 9.08872C12.0437 9.11606 12.0301 9.14614 12.0164 9.17349C11.9645 9.28013 11.9207 9.39224 11.877 9.50161C11.8715 9.51802 11.866 9.53169 11.8605 9.54809C11.8086 9.69302 11.7648 9.84341 11.7266 9.9938C11.7238 10.0075 11.7211 10.0184 11.7184 10.0293C11.7129 10.0485 11.7102 10.0676 11.7047 10.0868C11.702 10.1004 11.6992 10.1141 11.6965 10.1278C11.691 10.1497 11.6883 10.1715 11.6828 10.1934C11.6801 10.2043 11.6801 10.2153 11.6773 10.2262C11.6746 10.2426 11.6719 10.259 11.6691 10.2754C11.6664 10.2918 11.6637 10.3083 11.6609 10.3247C11.6582 10.3411 11.6555 10.3575 11.6527 10.3739C11.65 10.3903 11.6473 10.4067 11.6473 10.4231C11.6391 10.4942 11.6309 10.5653 11.6254 10.6364C11.6227 10.6801 11.6199 10.7266 11.6172 10.7704C11.6172 10.7731 11.6172 10.7786 11.6172 10.7813C11.6145 10.8141 11.6145 10.8469 11.6145 10.8797C11.6172 10.9071 11.6172 10.9208 11.6172 10.9372Z" fill="white"/>
<path d="M23.3147 7.85547H15.869C15.0076 7.85547 14.2147 8.17266 13.6377 8.75234C13.0225 9.36758 12.6916 10.1797 12.708 11.0383C12.7436 12.75 14.1819 14.1445 15.9209 14.1445H23.1998C23.5307 14.1445 23.7987 13.8766 23.7987 13.5457V8.33945C23.7987 8.07148 23.5827 7.85547 23.3147 7.85547ZM15.8498 12.2223C15.1444 12.2223 14.5948 11.6699 14.5948 10.9672C14.5948 10.2617 15.1471 9.71211 15.8498 9.71211C16.5553 9.71211 17.1049 10.2645 17.1049 10.9672C17.1049 11.6699 16.5526 12.2223 15.8498 12.2223Z" fill="white"/>
</svg>
